<svg width="2501" height="1643" viewBox="0 0 2501 1643" fill="none" xmlns="http://www.w3.org/2000/svg">
<mask id="path-1-inside-1_194_422" fill="white">
<path d="M130.244 780.411L137.435 738.041L137.748 730.845H0V158.451H510.588C708.75 17.1109 947.93 -5.43319 1042.75 0.96228L997.204 152.855L1169 152.854L1211.35 152.854L1274.47 152.854L1316.02 152.854L1375.15 152.854L1418.3 152.854L1462.25 152.854L1506.19 152.854L1566.92 152.854L1610.87 152.854L1685.98 152.854H1733.12L1781.86 152.855L1824.21 152.855L2089.49 152.855L2132.64 152.855L2197.36 152.855L2240.51 152.855L2309.23 152.855L2353.98 152.855L2409.11 152.855L2453.86 152.855L2501 152.855V703.665H2399.52H2336.4H2200.56H2135.84H1991.21H1931.28H1733.92H1670.8H1627.65H1565.32H1516.58H1453.46H1435.88H1372.75H1321.61H1258.26H1226.53H1165H1103.48H1039.55H1015.58H951.658H924.491V717.255V759.625V813.986V855.557V917.113V960.283V1014.64V1057.81V1119.37H711.946L591.087 1426.35L574.511 1468.46L552.375 1524.68L536.008 1566.25L505.793 1643L399.521 1555.86L366.52 1522.29L352.377 1507.9L334.798 1485.51L316.42 1463.93L283.66 1422.36L261.287 1387.98L233.32 1344.81L202.957 1283.25L184.579 1239.29L178.985 1221.7L161.406 1166.54L141.43 1090.59L131.043 1037.83L125.45 997.057L123.052 946.693V873.145L125.45 829.176L130.244 780.411Z"/>
</mask>
<path d="M143.827 691.673L143.992 690.687L143.037 690.528L142.847 691.477L143.827 691.673ZM138.234 719.654L137.254 719.458L137.238 719.533L137.235 719.61L138.234 719.654ZM156.612 723.98L156.841 723.007H156.841L156.612 723.98ZM165.402 726.049L165.172 727.022L166.139 727.25L166.373 726.285L165.402 726.049ZM134.239 929.105H133.239V930.105H134.239V929.105ZM134.239 901.125V900.125H133.239V901.125H134.239ZM162.205 901.125H163.205V900.125H162.205V901.125ZM162.205 929.105V930.105H163.205V929.105H162.205ZM169.397 1140.16L169.117 1139.2L169.109 1139.2L169.397 1140.16ZM161.406 1142.55L160.458 1142.87L160.764 1143.79L161.694 1143.51L161.406 1142.55ZM151.818 1113.77L151.467 1112.84L150.565 1113.18L150.869 1114.09L151.818 1113.77ZM177.387 1104.18L178.326 1103.84L177.978 1102.89L177.036 1103.25L177.387 1104.18ZM200.559 1232.09L201.491 1231.73L201.482 1231.7L201.471 1231.68L200.559 1232.09ZM192.569 1235.69L192.158 1234.78H192.158L192.569 1235.69ZM230.923 1328.82L230.028 1329.27L230.45 1330.11L231.317 1329.74L230.923 1328.82ZM218.138 1303.24L217.703 1302.34L216.791 1302.78L217.244 1303.69L218.138 1303.24ZM255.693 1316.83L256.161 1317.71L257.024 1317.26L256.588 1316.38L255.693 1316.83ZM420.296 1231.29L419.39 1231.72L419.826 1232.64L420.743 1232.19L420.296 1231.29ZM409.052 1207.31L409.957 1206.88L409.052 1207.31ZM244.507 1294.45L243.612 1294.89L244.507 1294.45ZM355.573 1054.62L355.299 1053.66L354.291 1053.94L354.626 1054.94L355.573 1054.62ZM187.396 1131.36L186.458 1131.71L187.396 1131.36ZM428.286 1193.01L428.754 1193.9L428.286 1193.01ZM517.779 1361.6L517.044 1362.28L517.708 1363L518.442 1362.35L517.779 1361.6ZM498.602 1340.81L497.967 1340.04L497.955 1340.05L497.943 1340.06L498.602 1340.81ZM356.373 1465.53L355.713 1464.77L355.703 1464.78L355.693 1464.79L356.373 1465.53ZM359.569 1469.42L358.796 1470.05L359.569 1469.42ZM374.75 1487.91L375.417 1488.66L376.132 1488.02L375.523 1487.28L374.75 1487.91ZM478.626 1264.67L479.432 1264.08L478.626 1264.67ZM285.394 1395.97L284.559 1396.52L285.394 1395.97ZM515.382 1603.03L516.218 1603.58L516.664 1602.9L516.089 1602.32L515.382 1603.03ZM500.2 1626.21L499.572 1626.99L500.432 1627.68L501.037 1626.76L500.2 1626.21ZM475.43 1606.23L474.681 1605.56L473.988 1606.35L474.802 1607L475.43 1606.23ZM493.808 1585.44L494.393 1584.63L493.659 1584.1L493.059 1584.78L493.808 1585.44ZM363.564 1497.9L362.898 1497.16L363.564 1497.9ZM377.148 1511.85L377.864 1511.15L377.148 1511.85ZM537.992 1519.89L537.061 1519.52L537.992 1519.89ZM545.183 1522.29L545.5 1521.34L545.183 1522.29ZM529.158 1563.06L528.735 1563.96L529.158 1563.06ZM576.733 1421.16L575.803 1420.79L576.733 1421.16ZM583.91 1423.75L584.251 1422.81L583.91 1423.75ZM708.75 1086.59L709.68 1086.96L709.75 1086.78V1086.59H708.75ZM708.75 1032.23H709.75V1031.23H708.75V1032.23ZM543.348 1032.23H542.348V1033.23H543.348V1032.23ZM708.75 925.108V926.108H709.75V925.108H708.75ZM708.75 837.17H709.75V836.17H708.75V837.17ZM621.654 837.17H620.654V838.17H621.654V837.17ZM621.654 475.026L621.135 474.172L620.654 474.464V475.026H621.654ZM721.534 414.269L722.534 414.275L722.544 412.485L721.015 413.415L721.534 414.269ZM914.903 871.546H915.903V870.546H914.903V871.546ZM914.903 897.927V898.927H915.903V897.927H914.903ZM719.137 871.546L718.137 871.54L718.132 872.546H719.137V871.546ZM890.132 897.927H889.132V898.927H890.132V897.927ZM719.137 877.142V876.142H718.137V877.142H719.137ZM719.137 1103.38H718.137V1104.38H719.137V1103.38ZM882.941 1108.18H881.941V1109.18H882.941V1108.18ZM914.104 1108.18V1109.18H915.104V1108.18H914.104ZM914.104 1078.6H915.104V1077.6H914.104V1078.6ZM882.941 1078.6V1077.6H881.941V1078.6H882.941ZM909.401 1057.81L908.401 1057.81L909.401 1057.81ZM915.702 694.071V695.071H916.702V694.071H915.702ZM915.702 672.487H916.702V671.487H915.702V672.487ZM894.127 672.487V671.487H893.127V672.487H894.127ZM894.127 694.071H893.127V695.071H894.127V694.071ZM922.893 694.071H921.893V695.071H922.893V694.071ZM922.893 672.487V671.487H921.893V672.487H922.893ZM943.668 694.071V695.071H944.668V694.071H943.668ZM943.668 672.487H944.668V671.487H943.668V672.487ZM1122.65 672.487V671.487H1121.65V672.487H1122.65ZM1145.03 672.487H1146.03V671.487H1145.03V672.487ZM1145.03 694.071V695.071H1146.03V694.071H1145.03ZM1122.65 694.071H1121.65V695.071H1122.65V694.071ZM1336.8 694.071H1335.8V695.071H1336.8V694.071ZM1358.37 694.071V695.071H1359.37V694.071H1358.37ZM1358.37 672.487H1359.37V671.487H1358.37V672.487ZM1336.8 672.487V671.487H1335.8V672.487H1336.8ZM1526.17 694.071H1525.17V695.071H1526.17V694.071ZM1549.34 694.071V695.071H1550.34V694.071H1549.34ZM1549.34 498.21V499.21H1550.34V498.21H1549.34ZM1549.34 672.487H1550.34V671.487H1549.34V672.487ZM1752.3 694.071H1751.3V695.071H1752.3V694.071ZM1773.87 694.071V695.071H1774.87V694.071H1773.87ZM1773.87 498.21V499.21H1774.87V498.21H1773.87ZM1773.87 672.487H1774.87V671.487H1773.87V672.487ZM1875.35 694.071V695.071H1876.35V694.071H1875.35ZM1852.98 694.071H1851.98V695.071H1852.98V694.071ZM1852.98 672.487V671.487H1851.98V672.487H1852.98ZM1875.35 475.826H1876.35V474.826H1875.35V475.826ZM1852.98 498.21H1851.98V499.21H1852.98V498.21ZM915.702 591.744V592.744H916.702V591.744H915.702ZM915.702 569.359H916.702V568.359H915.702V569.359ZM894.127 591.744H893.127V592.744H894.127V591.744ZM946.065 493.413V494.413H947.065V493.413H946.065ZM924.491 372.699V371.699H923.491V372.699H924.491ZM1017.18 372.699H1018.18V371.699H1017.18V372.699ZM1017.18 388.687H1016.18V389.687H1017.18V388.687ZM1216.14 342.32V341.32H1215.14V342.32H1216.14ZM1248.1 342.32H1249.1V341.32H1248.1V342.32ZM1358.37 367.103H1359.37V366.103H1358.37V367.103ZM1337.6 367.103V366.103H1336.6V367.103H1337.6ZM1248.1 388.687H1247.1V389.687H1248.1V388.687ZM1216.14 388.687V389.687H1217.14V388.687H1216.14ZM1145.83 367.103H1146.83V366.103H1145.83V367.103ZM1124.25 367.103V366.103H1123.25V367.103H1124.25ZM1077.11 164.046V163.046H1076.11V164.046H1077.11ZM1838.59 417.467V418.467H1839.59V417.467H1838.59ZM1801.04 393.484V392.484H1800.04V393.484H1801.04ZM1805.83 398.281V397.281H1804.83V398.281H1805.83ZM1777.07 369.501H1778.07V368.501H1777.07V369.501ZM1777.07 393.484V394.484H1778.07V393.484H1777.07ZM1753.1 393.484H1752.1V394.484H1753.1V393.484ZM1753.1 369.501V368.501H1752.1V369.501H1753.1ZM1775.47 188.029V189.029H1776.47V188.029H1775.47ZM1753.1 188.029H1752.1V189.029H1753.1V188.029ZM1553.34 188.029V189.029H1554.34V188.029H1553.34ZM1358.37 417.467H1357.37V418.467H1358.37V417.467ZM1549.34 395.882V396.882H1550.34V395.882H1549.34ZM1549.34 372.699H1550.34V371.699H1549.34V372.699ZM1359.97 188.029V189.029H1360.97V188.029H1359.97ZM1336.8 188.029H1335.8V189.029H1336.8V188.029ZM1147.42 188.029V189.029H1148.42V188.029H1147.42ZM1125.05 188.029H1124.05V189.029H1125.05V188.029ZM2264.48 183.233H2263.48V184.233H2264.48V183.233ZM2286.86 183.233V184.233H2287.86V183.233H2286.86ZM2286.86 160.849H2287.86V159.849H2286.86V160.849ZM2264.48 160.849V159.849H2263.48V160.849H2264.48ZM2469.84 183.233H2468.84V184.233H2469.84V183.233ZM2490.61 183.233V184.233H2491.61V183.233H2490.61ZM2490.61 160.849H2491.61V159.849H2490.61V160.849ZM2469.84 160.849V159.849H2468.84V160.849H2469.84ZM2490.61 365.504H2491.61V364.504H2490.61V365.504ZM2490.61 387.089V388.089H2491.61V387.089H2490.61ZM2064.72 387.089H2063.72V388.089H2064.72V387.089ZM2064.72 370.3H2065.72V369.3H2064.72V370.3ZM1894.53 370.3H1893.53V371.3H1894.53V370.3ZM2064.72 275.967V276.967H2065.72V275.967H2064.72ZM2071.91 345.518H2070.91V346.518H2071.91V345.518ZM2097.48 345.518H2098.48V344.518H2097.48V345.518ZM2071.91 376.696V375.696H2070.91V376.696H2071.91ZM2071.91 350.315V349.315H2070.91V350.315H2071.91ZM2071.91 371.899H2070.91V372.899H2071.91V371.899ZM2092.69 371.899V372.899H2093.69V371.899H2092.69ZM2092.69 350.315H2093.69V349.315H2092.69V350.315ZM2064.72 281.563H2065.72V280.563H2064.72V281.563ZM2064.72 363.905V364.905H2065.72V363.905H2064.72ZM1900.92 363.905H1899.92V364.905H1900.92V363.905ZM1900.92 281.563V280.563H1899.92V281.563H1900.92ZM2097.48 382.292H2096.48V383.292H2097.48V382.292ZM2263.68 363.905V362.905H2262.68V363.905H2263.68ZM2469.84 365.504V364.504H2468.84V365.504H2469.84ZM2490.61 471.829H2491.61V470.829H2490.61V471.829ZM2490.61 496.611V497.611H2491.61V496.611H2490.61ZM2469.84 496.611H2468.84V497.611H2469.84V496.611ZM2490.61 672.487H2491.61V671.487H2490.61V672.487ZM2490.61 694.071V695.071H2491.61V694.071H2490.61ZM2469.84 694.071H2468.84V695.071H2469.84V694.071ZM2469.84 672.487V671.487H2468.84V672.487H2469.84ZM2284.46 694.071V695.071H2285.46V694.071H2284.46ZM2263.68 694.071H2262.68V695.071H2263.68V694.071ZM2284.46 672.487H2285.46V671.487H2284.46V672.487ZM2263.68 496.611H2262.68V497.611H2263.68V496.611ZM2284.46 632.515V633.515H2285.46V632.515H2284.46ZM2157.41 632.515V631.515H2156.41V632.515H2157.41ZM2248.5 471.829V470.829H2247.5V471.829H2248.5ZM2248.5 626.119V627.119H2249.5V626.119H2248.5ZM2208.55 626.119H2207.55V627.119H2208.55V626.119ZM2208.55 471.829H2209.55V470.829H2208.55V471.829ZM2203.76 471.829V470.829H2202.76V471.829H2203.76ZM2203.76 490.216V491.216H2204.76V490.216H2203.76ZM2079.11 471.829H2080.11V470.829H2079.11V471.829ZM2055.13 471.829V470.829H2054.13V471.829H2055.13ZM2038.35 490.216V489.216H2037.35V490.216H2038.35ZM2057.53 672.487V671.487H2056.53V672.487H2057.53ZM2079.11 672.487H2080.11V671.487H2079.11V672.487ZM2079.11 694.071V695.071H2080.11V694.071H2079.11ZM2057.53 694.071H2056.53V695.071H2057.53V694.071ZM2203.76 626.119V627.119H2204.76V626.119H2203.76ZM2157.41 626.119H2156.41V627.119H2157.41V626.119ZM2157.41 612.529H2158.41V611.529H2157.41V612.529ZM2107.87 612.529V611.529H2106.87V612.529H2107.87ZM2046.35 632.515H2045.35V633.515H2046.35V632.515ZM2046.35 496.611V495.611H2045.35V496.611H2046.35ZM2203.76 496.611H2204.76V495.611H2203.76V496.611ZM2090.29 554.97H2089.29V555.97H2090.29V554.97ZM2086.3 554.97V555.97H2087.3V554.97H2086.3ZM2107.87 588.546H2106.87V589.546H2107.87V588.546ZM2112.67 588.546V589.546H2113.67V588.546H2112.67ZM946.065 471.029L946.073 470.029H946.065V471.029ZM1124.25 493.413H1123.25V494.413H1124.25V493.413ZM1145.83 493.413V494.413H1146.83V493.413H1145.83ZM1145.83 472.681L1145.83 471.681L1145.83 472.681ZM1337.6 474.266L1337.6 473.267L1337.6 474.266ZM1337.6 493.413H1336.6V494.413H1337.6V493.413ZM1358.37 493.413V494.413H1359.37V493.413H1358.37ZM1905.71 219.282L1905.71 220.282L1905.71 219.282ZM1938.47 219.518L1938.47 220.518L1938.47 219.518ZM1948.86 219.593L1948.85 220.593L1948.86 219.593ZM1996.01 219.932L1996 220.932L1996.01 219.932ZM1895.33 225.603H1894.33V226.603H1895.33V225.603ZM1894.53 275.967V274.967H1893.53V275.967H1894.53ZM1021.18 367.103H1022.18V366.103H1021.18V367.103ZM1021.18 384.69H1020.18V385.69H1021.18V384.69ZM994.008 164.046V163.046H993.288L993.059 163.729L994.008 164.046ZM966.84 390.286V391.286H967.84V390.286H966.84ZM519.377 171.241L518.794 170.429L518.773 170.444L518.752 170.461L519.377 171.241ZM511.387 177.637L510.541 178.171L510.588 178.245L510.646 178.309L511.387 177.637ZM501.798 162.448L502.644 161.914L502.068 161.002L501.202 161.645L501.798 162.448ZM477.028 180.835L476.159 181.33L476.189 181.382L476.225 181.43L477.028 180.835ZM519.377 186.431L520.002 187.211L520.833 186.546L520.117 185.758L519.377 186.431ZM473.832 175.238L474.7 174.743L474.412 174.238H473.832V175.238ZM236.516 188.829V189.829H237.516V188.829H236.516ZM214.942 168.044V167.044H213.942V168.044H214.942ZM236.516 168.044H237.516V167.044H236.516V168.044ZM28.7655 168.044H29.7655V167.044H28.7655V168.044ZM7.19137 168.044V167.044H6.19137V168.044H7.19137ZM7.19137 188.829H6.19137V189.829H7.19137V188.829ZM28.7655 188.829V189.829H29.7655V188.829H28.7655ZM7.19137 316.738V315.738H6.19137V316.738H7.19137ZM7.19137 337.524H6.19137V338.524H7.19137V337.524ZM28.7655 337.524V338.524H29.7655V337.524H28.7655ZM28.7655 316.738H29.7655V315.738H28.7655V316.738ZM7.19137 494.213V493.213H6.19137V494.213H7.19137ZM7.19137 515.797H6.19137V516.797H7.19137V515.797ZM28.7655 515.797V516.797H29.7655V515.797H28.7655ZM28.7655 494.213H29.7655V493.213H28.7655V494.213ZM7.19137 701.266V700.266H6.19137V701.266H7.19137ZM7.19137 722.051H6.19137V723.051H7.19137V722.051ZM28.7655 722.051V723.051H29.7655V722.051H28.7655ZM28.7655 701.266H29.7655V700.266H28.7655V701.266ZM138.714 717.255L139.694 717.451H139.694L138.714 717.255ZM214.143 476.625L214.675 475.779L213.798 475.227L213.278 476.123L214.143 476.625ZM242.11 494.213L242.925 494.791L243.537 493.929L242.642 493.366L242.11 494.213ZM224.531 518.995L223.952 519.811L224.767 520.39L225.346 519.574L224.531 518.995ZM199.76 501.408L198.895 500.906L198.438 501.695L199.181 502.223L199.76 501.408ZM370.755 929.105H369.755V929.16L369.761 929.214L370.755 929.105ZM341.99 901.125V900.125H340.99V901.125H341.99ZM341.99 925.108H340.99V926.108H341.99V925.108ZM368.358 717.255L368.523 716.268L368.493 716.264L368.464 716.26L368.358 717.255ZM367.486 722.051L368.47 722.23L367.486 722.051ZM363.564 743.636L362.58 743.457L362.395 744.475L363.418 744.625L363.564 743.636ZM525.769 485.419L526.524 486.075L526.529 486.07L525.769 485.419ZM544.946 463.035L545.706 463.685L546.32 462.969L545.64 462.314L544.946 463.035ZM524.171 443.049L524.865 442.328L524.093 441.586L523.405 442.406L524.171 443.049ZM917.3 457.439V458.439H918.3V457.439H917.3ZM917.3 390.286H918.3V389.286H917.3V390.286ZM822.214 390.286H821.214V391.286H822.214V390.286ZM822.214 337.524L821.935 336.563L821.214 336.772V337.524H822.214ZM932.481 305.546L932.76 306.507L933.273 306.358L933.435 305.848L932.481 305.546ZM991.611 118.812L992.564 119.114V119.114L991.611 118.812ZM1024.37 15.3516L1025.32 15.6535L1025.72 14.4022L1024.41 14.3524L1024.37 15.3516ZM932.481 109.685L931.536 109.36L931.147 110.491L932.329 110.673L932.481 109.685ZM941.271 84.103L942.217 84.4279L942.343 84.0598L942.187 83.7031L941.271 84.103ZM922.893 85.7018L923.861 85.9527L923.95 85.6089L923.802 85.2859L922.893 85.7018ZM917.3 107.287L917.565 108.251L918.123 108.097L918.268 107.537L917.3 107.287ZM716.74 162.448L715.821 162.842L716.165 163.643L717.005 163.412L716.74 162.448ZM674.474 85.7018L674.09 84.7785L674.474 85.7018ZM771.874 299.151L772.324 300.044L773.183 299.611L772.784 298.736L771.874 299.151ZM656.013 357.509L655.29 358.2L655.298 358.208L655.306 358.216L656.013 357.509ZM639.233 339.922L639.957 339.232L639.29 338.533L638.569 339.175L639.233 339.922ZM617.659 359.108L616.995 358.361L616.279 358.997L616.884 359.74L617.659 359.108ZM775.869 303.148L775.608 302.183L775.514 302.208L775.427 302.251L775.869 303.148ZM882.142 274.368L882.403 275.334L882.935 275.189L883.098 274.663L882.142 274.368ZM930.883 116.08L931.018 115.089L930.177 114.976L929.928 115.786L930.883 116.08ZM830.604 288.325L830.865 289.291L830.604 288.325ZM919.697 116.08L920.68 116.265L920.972 114.712L919.443 115.113L919.697 116.08ZM790.252 150.024L789.998 149.057L790.252 150.024ZM721.534 168.044L721.281 167.076L720.158 167.371L720.615 168.437L721.534 168.044ZM909.309 171.241L909.626 172.19L910.183 172.004L910.292 171.426L909.309 171.241ZM903.716 180.835L904.672 181.127L905.225 179.322L903.421 179.879L903.716 180.835ZM876.549 269.572L876.824 270.533L877.346 270.384L877.505 269.864L876.549 269.572ZM829.097 283.162L828.137 283.442L829.097 283.162ZM807.872 210.414L806.912 210.694L807.872 210.414ZM733.526 196.024L732.607 196.418L733.526 196.024ZM801.947 207.216L802.906 206.933L801.947 207.216ZM988.414 331.128L987.456 330.842L987.071 332.128H988.414V331.128ZM1023.57 331.128V332.128H1024.57V331.128H1023.57ZM945.074 310.343L944.126 310.026L945.074 310.343ZM952.439 288.325L951.49 288.008L952.439 288.325ZM1000.13 291.956L1001.09 292.242L1000.13 291.956ZM959.514 267.173L958.565 266.856L959.514 267.173ZM962.99 256.781L962.041 256.464L962.99 256.781ZM1005.99 272.37L1006.95 272.656L1005.99 272.37ZM1008.74 263.176L1009.7 263.463L1008.74 263.176ZM966.385 246.629L965.437 246.311V246.311L966.385 246.629ZM972.883 227.202L971.935 226.884V226.884L972.883 227.202ZM1017.18 234.978L1018.14 235.264L1017.18 234.978ZM978.499 210.414L977.55 210.096V210.096L978.499 210.414ZM1021.66 220.007L1022.62 220.293V220.293L1021.66 220.007ZM926.089 367.103L925.141 366.785L924.7 368.103H926.089V367.103ZM932.481 312.432L933.429 312.751L933.999 311.059L932.258 311.457L932.481 312.432ZM916.501 359.908V360.908H917.219L917.448 360.227L916.501 359.908ZM870.955 359.908L869.956 359.884L869.931 360.908H870.955V359.908ZM871.754 326.332L871.531 325.357L870.773 325.53L870.755 326.308L871.754 326.332ZM866.161 328.73H867.161V327.411L865.891 327.767L866.161 328.73ZM866.161 363.105H865.161V364.105H866.161V363.105ZM887.735 363.105H888.735V362.105H887.735V363.105ZM887.735 386.289V387.289H888.735V386.289H887.735ZM826.209 386.289H825.209V387.289H826.209V386.289ZM826.209 339.922L825.939 338.959L825.209 339.164V339.922H826.209ZM890.931 363.105V362.105H889.931V363.105H890.931ZM890.931 373.498H889.931V374.498H890.931V373.498ZM914.104 373.498V374.498H914.899L915.078 373.723L914.104 373.498ZM916.501 363.105L917.475 363.33L917.758 362.105H916.501V363.105ZM833.4 457.439H832.4V458.439H833.4V457.439ZM833.4 430.258H834.4V429.258H833.4V430.258ZM820.616 430.258V429.258H819.616V430.258H820.616ZM820.616 435.055H819.616V436.055H820.616V435.055ZM827.807 435.055H828.807V434.055H827.807V435.055ZM827.807 569.359V570.359H828.807V569.359H827.807ZM788.654 569.359H787.654V570.359H788.654V569.359ZM788.654 435.055V434.055H787.654V435.055H788.654ZM796.644 435.055V436.055H797.644V435.055H796.644ZM796.644 430.258H797.644V429.258H796.644V430.258ZM721.451 430.258L720.451 430.253L721.451 430.258ZM721.425 435.055L720.425 435.049L721.425 435.055ZM782.262 435.055H783.262V434.055H782.262V435.055ZM782.262 569.359V570.359H783.262V569.359H782.262ZM720.721 569.359L719.721 569.354L720.721 569.359ZM833.4 569.359H832.4V570.359H833.4V569.359ZM833.4 463.035V462.035H832.4V463.035H833.4ZM914.104 463.035L915.103 463.05L915.119 462.035H914.104V463.035ZM507.391 463.035L506.625 462.392L506.092 463.028L506.618 463.669L507.391 463.035ZM522.573 481.526L523.346 480.891L522.573 481.526ZM441.737 574.956L441.234 575.82L441.737 574.956ZM421.095 562.964L421.597 562.099L420.736 561.599L420.232 562.458L421.095 562.964ZM361.167 555.769H360.167V556.376L360.705 556.656L361.167 555.769ZM361.167 455.04V454.04H360.167V455.04H361.167ZM514.103 455.04L514.869 455.683L514.103 455.04ZM355.573 455.04H356.573V454.04H355.573V455.04ZM355.573 560.566H354.573V561.188L355.132 561.463L355.573 560.566ZM427.487 598.397L428.01 597.545H428.01L427.487 598.397ZM392.809 714.057L393.767 714.344H393.767L392.809 714.057ZM384.339 654.1L384.196 653.11L383.209 653.253L383.349 654.239L384.339 654.1ZM418.079 650.102L417.118 649.823L418.079 650.102ZM386.736 747.046L386.882 746.056L386.736 747.046ZM141.552 801.195L140.559 801.078L141.552 801.195ZM378.473 813.187L379.465 813.311L378.473 813.187ZM380.344 1047.54L380.619 1048.5L380.619 1048.5L380.344 1047.54ZM141.43 1003.59L140.438 1003.71L141.43 1003.59ZM372.723 982.667L373.716 982.55L372.723 982.667ZM629.645 386.289L629.651 387.289L630.062 387.286L630.352 386.996L629.645 386.289ZM214.942 383.396L214.949 384.395L214.942 383.396ZM236.516 318.337H237.516V317.337H236.516V318.337ZM236.516 339.922V340.922H237.516V339.922H236.516ZM366.76 382.419L366.766 383.419L366.76 382.419ZM495.406 380.693H494.406V381.464L495.151 381.66L495.406 380.693ZM501.798 382.378L501.543 383.345L502.815 383.681L502.798 382.365L501.798 382.378ZM454.655 925.108V924.108H453.655V925.108H454.655ZM454.655 1014.64H453.655V1014.76L453.68 1014.87L454.655 1014.64ZM477.827 1114.57L476.853 1114.8L476.884 1114.93L476.951 1115.06L477.827 1114.57ZM541.75 1230.49L540.874 1230.97L540.951 1231.11L541.068 1231.22L541.75 1230.49ZM622.249 1305.64L623.179 1306.01L622.249 1305.64ZM608.87 1201.71L607.999 1202.2L609.051 1204.06L609.805 1202.06L608.87 1201.71ZM653.616 1083.09L654.552 1083.44L655.062 1082.09H653.616V1083.09ZM541.75 1083.09V1082.09H540.035L540.88 1083.58L541.75 1083.09ZM172.757 695.484L143.992 690.687L143.663 692.66L172.428 697.456L172.757 695.484ZM138.005 720.627L156.383 724.953L156.841 723.007L138.463 718.68L138.005 720.627ZM156.383 724.953L165.172 727.022L165.631 725.076L156.841 723.007L156.383 724.953ZM153.589 740.675L157.584 724.216L155.64 723.744L151.645 740.203L153.589 740.675ZM144.806 782.216L153.595 740.646L151.639 740.232L142.849 781.803L144.806 782.216ZM137.279 739.028L144.87 740.227L145.182 738.252L137.591 737.053L137.279 739.028ZM144.87 740.227L152.461 741.427L152.773 739.451L145.182 738.252L144.87 740.227ZM130.127 781.404L136.919 782.203L137.153 780.217L130.361 779.417L130.127 781.404ZM136.919 782.203L143.711 783.003L143.944 781.016L137.153 780.217L136.919 782.203ZM144.044 739.053L136.053 781.023L138.018 781.397L146.008 739.427L144.044 739.053ZM138.435 873.163L139.234 829.194L137.234 829.158L136.435 873.127L138.435 873.163ZM125.45 830.176H131.842V828.176H125.45V830.176ZM131.842 830.176H138.234V828.176H131.842V830.176ZM123.052 874.145H130.244V872.145H123.052V874.145ZM130.244 874.145H137.435V872.145H130.244V874.145ZM130.842 829.14L129.244 873.109L131.243 873.181L132.841 829.212L130.842 829.14ZM138.035 946.716L138.435 929.128L136.435 929.083L136.036 946.67L138.035 946.716ZM137.435 928.105H134.239V930.105H137.435V928.105ZM135.239 929.105V901.125H133.239V929.105H135.239ZM161.205 901.125V929.105H163.205V901.125H161.205ZM162.205 928.105H137.435V930.105H162.205V928.105ZM134.239 902.125H138.234V900.125H134.239V902.125ZM138.234 902.125H162.205V900.125H138.234V902.125ZM139.234 901.097L138.435 873.116L136.436 873.174L137.235 901.154L139.234 901.097ZM141.629 996.986L138.033 946.622L136.038 946.764L139.634 997.129L141.629 996.986ZM123.052 947.693H130.044V945.693H123.052V947.693ZM130.044 947.693H137.036V945.693H130.044V947.693ZM125.45 998.057H133.04V996.057H125.45V998.057ZM133.04 998.057H140.631V996.057H133.04V998.057ZM129.046 946.752L132.042 997.117L134.039 996.998L131.042 946.634L129.046 946.752ZM156.793 1087.19L146.406 1036.03L144.446 1036.43L154.833 1087.59L156.793 1087.19ZM131.153 1038.82L138.345 1038.02L138.124 1036.04L130.932 1036.83L131.153 1038.82ZM138.345 1038.02L145.536 1037.22L145.315 1035.24L138.124 1036.04L138.345 1038.02ZM141.647 1091.57L148.839 1089.97L148.405 1088.02L141.213 1089.61L141.647 1091.57ZM148.839 1089.97L156.03 1088.37L155.596 1086.42L148.405 1088.02L148.839 1089.97ZM137.254 1037.23L147.641 1089.19L149.602 1088.8L139.215 1036.83L137.254 1037.23ZM176.748 1161.46L170.356 1139.87L168.438 1140.44L174.83 1162.02L176.748 1161.46ZM169.109 1139.2L161.119 1141.6L161.694 1143.51L169.684 1141.11L169.109 1139.2ZM162.355 1142.24L152.767 1113.46L150.869 1114.09L160.458 1142.87L162.355 1142.24ZM188.294 1133.6L169.117 1139.2L169.677 1141.12L188.854 1135.52L188.294 1133.6ZM152.169 1114.71L163.356 1110.51L162.653 1108.64L151.467 1112.84L152.169 1114.71ZM163.356 1110.51L177.738 1105.12L177.036 1103.25L162.653 1108.64L163.356 1110.51ZM163.956 1109.27L156.764 1087.08L154.862 1087.7L162.053 1109.89L163.956 1109.27ZM194.32 1215.79L176.741 1161.43L174.838 1162.05L192.417 1216.41L194.32 1215.79ZM161.723 1167.49L168.914 1165.09L168.281 1163.19L161.09 1165.59L161.723 1167.49ZM168.914 1165.09L176.106 1162.69L175.473 1160.79L168.281 1163.19L168.914 1165.09ZM179.348 1222.63L186.539 1219.83L185.814 1217.97L178.623 1220.77L179.348 1222.63ZM186.539 1219.83L193.731 1217.03L193.005 1215.17L185.814 1217.97L186.539 1219.83ZM167.646 1164.44L185.225 1219.21L187.129 1218.59L169.55 1163.83L167.646 1164.44ZM201.471 1231.68L194.28 1215.69L192.456 1216.51L199.647 1232.5L201.471 1231.68ZM218.271 1274.9L201.491 1231.73L199.627 1232.45L216.407 1275.62L218.271 1274.9ZM184.989 1240.2L192.98 1236.6L192.158 1234.78L184.168 1238.37L184.989 1240.2ZM192.98 1236.6L200.97 1233L200.149 1231.18L192.158 1234.78L192.98 1236.6ZM203.442 1284.13L210.634 1280.13L209.662 1278.38L202.471 1282.38L203.442 1284.13ZM210.634 1280.13L217.825 1276.13L216.853 1274.39L209.662 1278.38L210.634 1280.13ZM191.642 1236.06L209.221 1279.63L211.075 1278.88L193.496 1235.31L191.642 1236.06ZM250.185 1337.15L242.993 1323.56L241.226 1324.49L248.417 1338.08L250.185 1337.15ZM241.715 1323.11L230.529 1327.9L231.317 1329.74L242.504 1324.94L241.715 1323.11ZM231.818 1328.38L219.033 1302.79L217.244 1303.69L230.028 1329.27L231.818 1328.38ZM255.225 1315.95L241.642 1323.14L242.578 1324.91L256.161 1317.71L255.225 1315.95ZM218.574 1304.14L228.482 1299.34L227.611 1297.54L217.703 1302.34L218.574 1304.14ZM228.482 1299.34L243.344 1292.15L242.473 1290.35L227.611 1297.54L228.482 1299.34ZM216.431 1275.68L227.139 1298.86L228.954 1298.02L218.247 1274.84L216.431 1275.68ZM430.585 1191.76L444.169 1219.34L445.963 1218.46L432.38 1190.88L430.585 1191.76ZM444.619 1218.01L419.848 1230.4L420.743 1232.19L445.514 1219.79L444.619 1218.01ZM243.377 1292.13L407.979 1204.91L407.043 1203.14L242.44 1290.37L243.377 1292.13ZM421.201 1230.87L409.957 1206.88L408.146 1207.73L419.39 1231.72L421.201 1230.87ZM409.957 1206.88L408.417 1203.6L406.606 1204.45L408.146 1207.73L409.957 1206.88ZM242.014 1291.7L243.612 1294.89L245.401 1294L243.803 1290.8L242.014 1291.7ZM243.612 1294.89L254.799 1317.28L256.588 1316.38L245.401 1294L243.612 1294.89ZM408.584 1206.42L244.039 1293.56L244.975 1295.33L409.52 1208.19L408.584 1206.42ZM392.494 1075.13L384.503 1046.35L382.576 1046.89L390.567 1075.67L392.494 1075.13ZM188.854 1135.52L365.442 1084.05L364.882 1082.13L188.294 1133.6L188.854 1135.52ZM354.626 1054.94L363.241 1080.52L365.137 1079.88L356.521 1054.3L354.626 1054.94ZM363.241 1080.52L364.214 1083.41L366.11 1082.77L365.137 1079.88L363.241 1080.52ZM176.449 1104.53L186.458 1131.71L188.335 1131.02L178.326 1103.84L176.449 1104.53ZM186.458 1131.71L187.635 1134.91L189.512 1134.21L188.335 1131.02L186.458 1131.71ZM363.911 1079.24L187.118 1130.4L187.674 1132.32L364.467 1081.16L363.911 1079.24ZM365.442 1084.05L387.815 1077.53L387.255 1075.61L364.882 1082.13L365.442 1084.05ZM387.815 1077.53L391.81 1076.36L391.25 1074.44L387.255 1075.61L387.815 1077.53ZM407.979 1204.91L428.754 1193.9L427.818 1192.13L407.043 1203.14L407.979 1204.91ZM428.754 1193.9L431.951 1192.2L431.014 1190.44L427.818 1192.13L428.754 1193.9ZM386.591 1076.9L427.342 1193.34L429.23 1192.68L388.479 1076.24L386.591 1076.9ZM432.428 1190.99L392.476 1075.08L390.585 1075.73L430.537 1191.65L432.428 1190.99ZM520.211 1323.07L537.79 1343.86L539.318 1342.57L521.739 1321.78L520.211 1323.07ZM537.891 1342.46L517.116 1360.85L518.442 1362.35L539.217 1343.96L537.891 1342.46ZM499.237 1341.59L521.61 1323.2L520.34 1321.65L497.967 1340.04L499.237 1341.59ZM275.726 1379.47L250.157 1337.1L248.445 1338.13L274.014 1380.5L275.726 1379.47ZM233.731 1345.72L241.721 1342.13L240.9 1340.3L232.91 1343.9L233.731 1345.72ZM241.721 1342.13L249.711 1338.53L248.89 1336.7L240.9 1340.3L241.721 1342.13ZM261.794 1388.84L268.586 1384.85L267.571 1383.12L260.779 1387.12L261.794 1388.84ZM268.586 1384.85L275.377 1380.85L274.363 1379.12L267.571 1383.12L268.586 1384.85ZM240.463 1341.74L267.231 1384.51L268.926 1383.45L242.158 1340.68L240.463 1341.74ZM329.199 1453.72L297.237 1412.15L295.652 1413.37L327.613 1454.94L329.199 1453.72ZM284.26 1423.16L290.652 1418.36L289.452 1416.76L283.06 1421.56L284.26 1423.16ZM290.652 1418.36L297.045 1413.56L295.844 1411.96L289.452 1416.76L290.652 1418.36ZM317.045 1464.71L323.038 1459.91L321.788 1458.35L315.796 1463.15L317.045 1464.71ZM323.038 1459.91L329.031 1455.11L327.781 1453.55L321.788 1458.35L323.038 1459.91ZM289.263 1418.17L321.624 1459.74L323.202 1458.52L290.841 1416.95L289.263 1418.17ZM335.478 1486.25L347.464 1475.14L346.104 1473.67L334.119 1484.78L335.478 1486.25ZM347.464 1475.14L357.052 1466.26L355.693 1464.79L346.104 1473.67L347.464 1475.14ZM327.668 1455.01L346.046 1475.08L347.522 1473.73L329.144 1453.66L327.668 1455.01ZM357.032 1466.28L499.261 1341.57L497.943 1340.06L355.713 1464.77L357.032 1466.28ZM518.514 1360.92L502.533 1343.6L501.063 1344.96L517.044 1362.28L518.514 1360.92ZM502.533 1343.6L499.337 1340.14L497.867 1341.49L501.063 1344.96L502.533 1343.6ZM355.6 1466.16L358.796 1470.05L360.342 1468.78L357.145 1464.89L355.6 1466.16ZM358.796 1470.05L373.978 1488.54L375.523 1487.28L360.342 1468.78L358.796 1470.05ZM501.138 1343.53L358.908 1468.67L360.229 1470.17L502.459 1345.03L501.138 1343.53ZM284.125 1392.23L275.706 1379.44L274.035 1380.54L282.454 1393.33L284.125 1392.23ZM444.26 1219.49L475.62 1262.26L477.233 1261.08L445.873 1218.31L444.26 1219.49ZM283.851 1393.6L476.988 1262.5L475.865 1260.84L282.728 1391.95L283.851 1393.6ZM475.62 1262.26L477.819 1265.26L479.432 1264.08L477.233 1261.08L475.62 1262.26ZM477.819 1265.26L520.169 1323.02L521.781 1321.84L479.432 1264.08L477.819 1265.26ZM297.28 1412.21L286.23 1395.43L284.559 1396.52L295.609 1413.31L297.28 1412.21ZM286.23 1395.43L284.125 1392.23L282.454 1393.33L284.559 1396.52L286.23 1395.43ZM478.064 1263.84L284.832 1395.15L285.956 1396.8L479.188 1265.5L478.064 1263.84ZM537.993 1344.04L592.328 1380.81L593.449 1379.16L539.114 1342.38L537.993 1344.04ZM507.483 1596.54L514.674 1603.74L516.089 1602.32L508.898 1595.13L507.483 1596.54ZM514.545 1602.48L499.363 1625.66L501.037 1626.76L516.218 1603.58L514.545 1602.48ZM500.828 1625.43L476.058 1605.45L474.802 1607L499.572 1626.99L500.828 1625.43ZM493.222 1586.25L507.605 1596.64L508.776 1595.02L494.393 1584.63L493.222 1586.25ZM374.084 1487.16L362.898 1497.16L364.23 1498.65L375.417 1488.66L374.084 1487.16ZM362.898 1497.16L351.711 1507.15L353.044 1508.64L364.23 1498.65L362.898 1497.16ZM476.179 1606.89L479.006 1603.69L477.508 1602.37L474.681 1605.56L476.179 1606.89ZM479.006 1603.69L494.557 1586.1L493.059 1584.78L477.508 1602.37L479.006 1603.69ZM408.464 1545.43L477.612 1603.79L478.902 1602.26L409.754 1543.91L408.464 1545.43ZM137.235 719.61L136.749 730.802L138.747 730.889L139.233 719.697L137.235 719.61ZM362.847 1498.6L376.431 1512.55L377.864 1511.15L364.28 1497.21L362.847 1498.6ZM376.431 1512.55L408.393 1545.37L409.826 1543.97L377.864 1511.15L376.431 1512.55ZM376.447 1511.14L371.133 1516.35L372.534 1517.78L377.848 1512.56L376.447 1511.14ZM371.133 1516.35L365.819 1521.57L367.22 1523L372.534 1517.78L371.133 1516.35ZM408.35 1544.02L403.556 1549.62L405.074 1550.92L409.869 1545.32L408.35 1544.02ZM403.556 1549.62L398.761 1555.21L400.28 1556.51L405.074 1550.92L403.556 1549.62ZM371.119 1517.77L403.6 1550.97L405.03 1549.57L372.549 1516.37L371.119 1517.77ZM521.376 1559.49L507.259 1595.47L509.121 1596.2L523.238 1560.22L521.376 1559.49ZM537.061 1519.52L521.376 1559.49L523.238 1560.22L538.923 1520.25L537.061 1519.52ZM552.691 1523.73L545.5 1521.34L544.867 1523.23L552.058 1525.63L552.691 1523.73ZM545.5 1521.34L538.308 1518.94L537.676 1520.84L544.867 1523.23L545.5 1521.34ZM521.884 1560.76L528.735 1563.96L529.581 1562.15L522.73 1558.95L521.884 1560.76ZM528.735 1563.96L535.585 1567.16L536.431 1565.35L529.581 1562.15L528.735 1563.96ZM544.253 1521.92L528.227 1562.69L530.088 1563.42L546.114 1522.65L544.253 1521.92ZM559.647 1461.96L537.061 1519.52L538.923 1520.25L561.509 1462.69L559.647 1461.96ZM591.958 1379.62L575.803 1420.79L577.664 1421.52L593.82 1380.35L591.958 1379.62ZM575.803 1420.79L559.647 1461.96L561.509 1462.69L577.664 1421.52L575.803 1420.79ZM576.393 1422.1L583.57 1424.7L584.251 1422.81L577.074 1420.22L576.393 1422.1ZM583.57 1424.7L590.747 1427.29L591.428 1425.41L584.251 1422.81L583.57 1424.7ZM560.175 1463.24L567.142 1466.31L567.947 1464.48L560.981 1461.41L560.175 1463.24ZM567.142 1466.31L574.108 1469.37L574.914 1467.54L567.947 1464.48L567.142 1466.31ZM582.98 1423.39L566.614 1465.03L568.475 1465.76L584.841 1424.12L582.98 1423.39ZM709.75 1086.59V1032.23H707.75V1086.59H709.75ZM708.75 1031.23H543.348V1033.23H708.75V1031.23ZM544.348 1032.23V925.108H542.348V1032.23H544.348ZM543.348 926.108H708.75V924.108H543.348V926.108ZM709.75 925.108V837.17H707.75V925.108H709.75ZM708.75 836.17H621.654V838.17H708.75V836.17ZM622.174 475.881L722.054 415.124L721.015 413.415L621.135 474.172L622.174 475.881ZM913.903 871.546V897.927H915.903V871.546H913.903ZM719.137 872.546H890.132V870.546H719.137V872.546ZM891.132 897.927V877.142H889.132V897.927H891.132ZM891.132 877.142V871.546H889.132V877.142H891.132ZM890.132 876.142H719.137V878.142H890.132V876.142ZM718.137 877.142V1103.38H720.137V877.142H718.137ZM719.137 1104.38H882.941V1102.38H719.137V1104.38ZM881.941 1103.38V1108.18H883.941V1103.38H881.941ZM882.941 1109.18H914.104V1107.18H882.941V1109.18ZM915.104 1108.18V1078.6H913.104V1108.18H915.104ZM881.941 1078.6V1103.38H883.941V1078.6H881.941ZM914.104 1077.6H909.309V1079.6H914.104V1077.6ZM909.309 1077.6H882.941V1079.6H909.309V1077.6ZM914.903 896.927H910.108V898.927H914.903V896.927ZM910.108 896.927H890.132V898.927H910.108V896.927ZM910.309 1078.6L910.401 1057.82L908.401 1057.81L908.309 1078.59L910.309 1078.6ZM924.491 1056.81H916.501V1058.81H924.491V1056.81ZM916.501 1056.81H909.401V1058.81H916.501V1056.81ZM917.501 1057.81V1014.64H915.501V1057.81H917.501ZM910.401 1057.82L910.592 1014.65L908.592 1014.64L908.401 1057.81L910.401 1057.82ZM916.501 1013.64H909.592V1015.64H916.501V1013.64ZM916.501 1015.64H924.491V1013.64H916.501V1015.64ZM910.592 1014.65L910.833 960.287L908.833 960.278L908.592 1014.64L910.592 1014.65ZM910.833 960.287L911.023 917.118L909.023 917.109L908.833 960.278L910.833 960.287ZM911.023 917.118L911.108 897.931L909.108 897.923L909.023 917.109L911.023 917.118ZM910.023 918.113H917.257V916.113H910.023V918.113ZM917.257 918.113H924.491V916.113H917.257V918.113ZM924.491 959.283H917.162V961.283H924.491V959.283ZM917.162 959.283H909.833V961.283H917.162V959.283ZM916.257 917.111L916.162 960.281L918.162 960.285L918.257 917.116L916.257 917.111ZM890.132 872.546H910.907V870.546H890.132V872.546ZM910.907 872.546H914.903V870.546H910.907V872.546ZM910.907 695.071H915.702V693.071H910.907V695.071ZM916.702 694.071V672.487H914.702V694.071H916.702ZM893.127 672.487V694.071H895.127V672.487H893.127ZM894.127 695.071H910.907V693.071H894.127V695.071ZM923.893 694.071V672.487H921.893V694.071H923.893ZM943.668 693.071H922.893V695.071H943.668V693.071ZM911.907 717.255V694.071H909.907V717.255H911.907ZM924.491 716.255H917.699V718.255H924.491V716.255ZM917.699 716.255H910.907V718.255H917.699V716.255ZM916.699 717.255V759.625H918.699V717.255H916.699ZM911.907 759.625V717.255H909.907V759.625H911.907ZM917.699 758.625H910.907V760.625H917.699V758.625ZM917.699 760.625H924.491V758.625H917.699V760.625ZM911.907 813.986V759.625H909.907V813.986H911.907ZM911.907 871.546V855.557H909.907V871.546H911.907ZM911.907 855.557V813.986H909.907V855.557H911.907ZM924.491 854.557H917.699V856.557H924.491V854.557ZM917.699 854.557H910.907V856.557H917.699V854.557ZM910.907 814.986H917.699V812.986H910.907V814.986ZM917.699 814.986H924.491V812.986H917.699V814.986ZM918.699 855.557V813.986H916.699V855.557H918.699ZM942.668 672.487V690.874H944.668V672.487H942.668ZM942.668 690.874V694.071H944.668V690.874H942.668ZM1123.65 690.874V672.487H1121.65V690.874H1123.65ZM1122.65 673.487H1145.03V671.487H1122.65V673.487ZM1145.03 693.071H1122.65V695.071H1145.03V693.071ZM1123.65 694.071V690.874H1121.65V694.071H1123.65ZM1144.03 672.487V690.874H1146.03V672.487H1144.03ZM1144.03 690.874V694.071H1146.03V690.874H1144.03ZM1335.8 690.874V694.071H1337.8V690.874H1335.8ZM1336.8 695.071H1358.37V693.071H1336.8V695.071ZM1358.37 671.487H1336.8V673.487H1358.37V671.487ZM1335.8 672.487V690.874H1337.8V672.487H1335.8ZM1359.37 694.071V690.874H1357.37V694.071H1359.37ZM1359.37 690.874V672.487H1357.37V690.874H1359.37ZM1525.17 690.874V694.071H1527.17V690.874H1525.17ZM1526.17 695.071H1549.34V693.071H1526.17V695.071ZM1525.17 672.487V690.874H1527.17V672.487H1525.17ZM1526.17 476.826H1549.34V474.826H1526.17V476.826ZM1527.17 672.487V498.21H1525.17V672.487H1527.17ZM1549.34 497.21H1530.96V499.21H1549.34V497.21ZM1530.96 497.21H1526.17V499.21H1530.96V497.21ZM1549.34 671.487H1530.96V673.487H1549.34V671.487ZM1530.96 671.487H1526.17V673.487H1530.96V671.487ZM1529.96 498.21V672.487H1531.96V498.21H1529.96ZM1550.34 694.071V690.874H1548.34V694.071H1550.34ZM1550.34 690.874V672.487H1548.34V690.874H1550.34ZM1751.3 690.874V694.071H1753.3V690.874H1751.3ZM1752.3 695.071H1773.87V693.071H1752.3V695.071ZM1751.3 672.487V690.874H1753.3V672.487H1751.3ZM1752.3 476.826H1773.87V474.826H1752.3V476.826ZM1772.87 475.826V498.21H1774.87V475.826H1772.87ZM1753.3 672.487V498.21H1751.3V672.487H1753.3ZM1773.87 497.21H1756.29V499.21H1773.87V497.21ZM1756.29 497.21H1752.3V499.21H1756.29V497.21ZM1773.87 671.487H1756.29V673.487H1773.87V671.487ZM1756.29 671.487H1752.3V673.487H1756.29V671.487ZM1755.29 498.21V672.487H1757.29V498.21H1755.29ZM1549.34 476.826H1752.3V474.826H1549.34V476.826ZM1753.3 498.21V480.622H1751.3V498.21H1753.3ZM1753.3 480.622V475.826H1751.3V480.622H1753.3ZM1548.34 475.826V480.622H1550.34V475.826H1548.34ZM1548.34 480.622V498.21H1550.34V480.622H1548.34ZM1752.3 479.622H1549.34V481.622H1752.3V479.622ZM1875.35 693.071H1852.98V695.071H1875.35V693.071ZM1852.98 673.487H1870.56V671.487H1852.98V673.487ZM1870.56 673.487H1875.35V671.487H1870.56V673.487ZM1871.56 672.487V498.21H1869.56V672.487H1871.56ZM1874.35 475.826V498.21H1876.35V475.826H1874.35ZM1874.35 498.21V672.487H1876.35V498.21H1874.35ZM1870.56 499.21H1875.35V497.21H1870.56V499.21ZM1870.56 497.21H1852.98V499.21H1870.56V497.21ZM1773.87 476.826H1852.98V474.826H1773.87V476.826ZM1852.98 476.826H1875.35V474.826H1852.98V476.826ZM1853.98 498.21V475.826H1851.98V498.21H1853.98ZM1774.87 694.071V690.874H1772.87V694.071H1774.87ZM1774.87 690.874V672.487H1772.87V690.874H1774.87ZM1853.98 694.071V690.874H1851.98V694.071H1853.98ZM1853.98 690.874V672.487H1851.98V690.874H1853.98ZM1773.87 691.874H1852.98V689.874H1773.87V691.874ZM1733.92 691.874H1752.3V689.874H1733.92V691.874ZM1670.8 691.874H1733.92V689.874H1670.8V691.874ZM1669.8 690.874V697.269H1671.8V690.874H1669.8ZM1669.8 697.269V703.665H1671.8V697.269H1669.8ZM1732.92 690.874V697.269H1734.92V690.874H1732.92ZM1732.92 697.269V703.665H1734.92V697.269H1732.92ZM1670.8 698.269H1733.92V696.269H1670.8V698.269ZM1627.65 691.874H1670.8V689.874H1627.65V691.874ZM1549.34 691.874H1565.32V689.874H1549.34V691.874ZM1565.32 691.874H1627.65V689.874H1565.32V691.874ZM1564.32 690.874V697.269H1566.32V690.874H1564.32ZM1564.32 697.269V703.665H1566.32V697.269H1564.32ZM1626.65 690.874V697.269H1628.65V690.874H1626.65ZM1626.65 697.269V703.665H1628.65V697.269H1626.65ZM1565.32 698.269H1627.65V696.269H1565.32V698.269ZM1516.58 691.874H1526.17V689.874H1516.58V691.874ZM1453.46 691.874H1516.58V689.874H1453.46V691.874ZM1452.46 690.874V697.269H1454.46V690.874H1452.46ZM1452.46 697.269V703.665H1454.46V697.269H1452.46ZM1515.58 690.874V697.269H1517.58V690.874H1515.58ZM1515.58 697.269V703.665H1517.58V697.269H1515.58ZM1453.46 698.269H1516.58V696.269H1453.46V698.269ZM1435.88 691.874H1453.46V689.874H1435.88V691.874ZM1358.37 691.874H1372.75V689.874H1358.37V691.874ZM1372.75 691.874H1435.88V689.874H1372.75V691.874ZM1371.75 690.874V697.269H1373.75V690.874H1371.75ZM1371.75 697.269V703.665H1373.75V697.269H1371.75ZM1434.88 690.874V697.269H1436.88V690.874H1434.88ZM1434.88 697.269V703.665H1436.88V697.269H1434.88ZM1372.75 698.269H1435.88V696.269H1372.75V698.269ZM1321.61 691.874H1336.8V689.874H1321.61V691.874ZM1258.26 691.874H1321.61V689.874H1258.26V691.874ZM1259.26 703.665V697.269H1257.26V703.665H1259.26ZM1259.26 697.269V690.874H1257.26V697.269H1259.26ZM1320.61 690.874V697.269H1322.61V690.874H1320.61ZM1320.61 697.269V703.665H1322.61V697.269H1320.61ZM1258.26 698.269H1321.61V696.269H1258.26V698.269ZM1226.53 691.874H1258.26V689.874H1226.53V691.874ZM1145.03 691.874H1165V689.874H1145.03V691.874ZM1165 691.874H1226.53V689.874H1165V691.874ZM1164 690.874V697.269H1166V690.874H1164ZM1164 697.269V703.665H1166V697.269H1164ZM1225.53 690.874V697.269H1227.53V690.874H1225.53ZM1225.53 697.269V703.665H1227.53V697.269H1225.53ZM1165 698.269H1226.53V696.269H1165V698.269ZM1103.48 691.874H1122.65V689.874H1103.48V691.874ZM1039.55 691.874H1103.48V689.874H1039.55V691.874ZM1038.55 690.874V697.269H1040.55V690.874H1038.55ZM1038.55 697.269V703.665H1040.55V697.269H1038.55ZM1102.48 690.874V697.269H1104.48V690.874H1102.48ZM1102.48 697.269V703.665H1104.48V697.269H1102.48ZM1039.55 698.269H1103.48V696.269H1039.55V698.269ZM1015.58 691.874H1039.55V689.874H1015.58V691.874ZM943.668 691.874H951.658V689.874H943.668V691.874ZM951.658 691.874H1015.58V689.874H951.658V691.874ZM950.658 690.874V697.269H952.658V690.874H950.658ZM950.658 697.269V703.665H952.658V697.269H950.658ZM1014.58 690.874V697.269H1016.58V690.874H1014.58ZM1014.58 697.269V703.665H1016.58V697.269H1014.58ZM951.658 698.269H1015.58V696.269H951.658V698.269ZM915.702 671.487H910.907V673.487H915.702V671.487ZM910.907 671.487H894.127V673.487H910.907V671.487ZM911.907 672.487V591.744H909.907V672.487H911.907ZM910.907 592.744H915.702V590.744H910.907V592.744ZM916.702 591.744V569.359H914.702V591.744H916.702ZM894.127 592.744H910.907V590.744H894.127V592.744ZM922.893 673.487H924.491V671.487H922.893V673.487ZM924.491 673.487H943.668V671.487H924.491V673.487ZM925.491 672.487V493.413H923.491V672.487H925.491ZM924.491 494.413H946.065V492.413H924.491V494.413ZM923.491 471.029V493.413H925.491V471.029H923.491ZM925.491 471.029V372.699H923.491V471.029H925.491ZM1016.18 372.699V388.687H1018.18V372.699H1016.18ZM1216.14 343.32H1248.1V341.32H1216.14V343.32ZM1359.37 388.687V367.103H1357.37V388.687H1359.37ZM1358.37 366.103H1337.6V368.103H1358.37V366.103ZM1248.1 389.687H1337.6V387.687H1248.1V389.687ZM1337.6 389.687H1358.37V387.687H1337.6V389.687ZM1336.6 367.103V384.69H1338.6V367.103H1336.6ZM1336.6 384.69V388.687H1338.6V384.69H1336.6ZM1247.1 342.32V384.69H1249.1V342.32H1247.1ZM1247.1 384.69V388.687H1249.1V384.69H1247.1ZM1337.6 383.69H1248.1V385.69H1337.6V383.69ZM1217.14 388.687V384.69H1215.14V388.687H1217.14ZM1217.14 384.69V342.32H1215.14V384.69H1217.14ZM1216.14 383.69H1145.83V385.69H1216.14V383.69ZM1145.83 389.687H1216.14V387.687H1145.83V389.687ZM1144.83 384.69V388.687H1146.83V384.69H1144.83ZM1146.83 384.69V367.103H1144.83V384.69H1146.83ZM1145.83 366.103H1124.25V368.103H1145.83V366.103ZM1124.25 389.687H1145.83V387.687H1124.25V389.687ZM1123.25 367.103V384.69H1125.25V367.103H1123.25ZM1123.25 384.69V388.687H1125.25V384.69H1123.25ZM1124.25 383.69H1077.11V385.69H1124.25V383.69ZM1077.11 389.687H1124.25V387.687H1077.11V389.687ZM1076.11 384.69V388.687H1078.11V384.69H1076.11ZM1078.11 384.69V164.046H1076.11V384.69H1078.11ZM1832.2 165.046H1838.59V163.046H1832.2V165.046ZM1838.59 416.467H1832.2V418.467H1838.59V416.467ZM1831.2 164.046V393.484H1833.2V164.046H1831.2ZM1832.2 392.484H1801.04V394.484H1832.2V392.484ZM1832.2 416.467H1805.83V418.467H1832.2V416.467ZM1805.83 416.467H1801.04V418.467H1805.83V416.467ZM1806.83 417.467V398.281H1804.83V417.467H1806.83ZM1831.2 393.484V398.281H1833.2V393.484H1831.2ZM1831.2 398.281V417.467H1833.2V398.281H1831.2ZM1805.83 399.281H1832.2V397.281H1805.83V399.281ZM1776.07 369.501V393.484H1778.07V369.501H1776.07ZM1777.07 392.484H1753.1V394.484H1777.07V392.484ZM1754.1 393.484V369.501H1752.1V393.484H1754.1ZM1753.1 370.501H1777.07V368.501H1753.1V370.501ZM1774.47 164.046V188.029H1776.47V164.046H1774.47ZM1775.47 187.029H1753.1V189.029H1775.47V187.029ZM1753.1 165.046H1775.47V163.046H1753.1V165.046ZM1754.1 188.029V164.046H1752.1V188.029H1754.1ZM1552.34 164.046V188.029H1554.34V164.046H1552.34ZM1526.97 165.046H1553.34V163.046H1526.97V165.046ZM1527.97 188.029V164.046H1525.97V188.029H1527.97ZM1526.97 416.467H1358.37V418.467H1526.97V416.467ZM1550.34 395.882V372.699H1548.34V395.882H1550.34ZM1525.97 188.029V372.699H1527.97V188.029H1525.97ZM1525.97 372.699V395.882H1527.97V372.699H1525.97ZM1553.34 187.029H1531.76V189.029H1553.34V187.029ZM1531.76 187.029H1526.97V189.029H1531.76V187.029ZM1549.34 371.699H1531.76V373.699H1549.34V371.699ZM1531.76 371.699H1526.97V373.699H1531.76V371.699ZM1530.76 188.029V372.699H1532.76V188.029H1530.76ZM1526.97 396.882H1531.76V394.882H1526.97V396.882ZM1531.76 396.882H1549.34V394.882H1531.76V396.882ZM1801.04 416.467H1531.76V418.467H1801.04V416.467ZM1531.76 416.467H1526.97V418.467H1531.76V416.467ZM1359.37 417.467V413.47H1357.37V417.467H1359.37ZM1359.37 413.47V388.687H1357.37V413.47H1359.37ZM1525.97 395.882V413.47H1527.97V395.882H1525.97ZM1525.97 413.47V417.467H1527.97V413.47H1525.97ZM1358.37 414.47H1526.97V412.47H1358.37V414.47ZM1530.76 395.882V413.47H1532.76V395.882H1530.76ZM1530.76 413.47V417.467H1532.76V413.47H1530.76ZM1800.04 393.484V413.47H1802.04V393.484H1800.04ZM1800.04 413.47V417.467H1802.04V413.47H1800.04ZM1531.76 414.47H1801.04V412.47H1531.76V414.47ZM1169 165.046H1211.35V163.046H1169V165.046ZM1210.35 152.854V158.45H1212.35V152.854H1210.35ZM1210.35 158.45V164.046H1212.35V158.45H1210.35ZM1168 152.854V158.45H1170V152.854H1168ZM1168 158.45V164.046H1170V158.45H1168ZM1211.35 157.45H1169V159.45H1211.35V157.45ZM1211.35 165.046H1274.47V163.046H1211.35V165.046ZM1274.47 165.046H1316.02V163.046H1274.47V165.046ZM1315.02 152.854V158.45H1317.02V152.854H1315.02ZM1315.02 158.45V164.046H1317.02V158.45H1315.02ZM1273.47 152.854V158.45H1275.47V152.854H1273.47ZM1273.47 158.45V164.046H1275.47V158.45H1273.47ZM1316.02 157.45H1274.47V159.45H1316.02V157.45ZM1358.97 164.046V188.029H1360.97V164.046H1358.97ZM1359.97 187.029H1336.8V189.029H1359.97V187.029ZM1316.02 165.046H1336.8V163.046H1316.02V165.046ZM1336.8 165.046H1359.97V163.046H1336.8V165.046ZM1337.8 188.029V164.046H1335.8V188.029H1337.8ZM1147.42 165.046H1169V163.046H1147.42V165.046ZM1146.42 164.046V188.029H1148.42V164.046H1146.42ZM1147.42 187.029H1125.05V189.029H1147.42V187.029ZM1077.11 165.046H1125.05V163.046H1077.11V165.046ZM1125.05 165.046H1147.42V163.046H1125.05V165.046ZM1126.05 188.029V164.046H1124.05V188.029H1126.05ZM1359.97 165.046H1375.15V163.046H1359.97V165.046ZM1417.3 152.854V158.45H1419.3V152.854H1417.3ZM1417.3 158.45V164.046H1419.3V158.45H1417.3ZM1374.15 152.854V158.45H1376.15V152.854H1374.15ZM1374.15 158.45V164.046H1376.15V158.45H1374.15ZM1418.3 157.45L1375.15 157.45V159.45L1418.3 159.45V157.45ZM1418.3 165.046H1462.25V163.046H1418.3V165.046ZM1462.25 165.046H1506.19V163.046H1462.25V165.046ZM1506.19 165.046H1526.97V163.046H1506.19V165.046ZM1505.19 152.854V158.45H1507.19V152.854H1505.19ZM1505.19 158.45V164.046H1507.19V158.45H1505.19ZM1463.25 164.046V158.45H1461.25V164.046H1463.25ZM1463.25 158.45V152.854H1461.25V158.45H1463.25ZM1506.19 157.45H1462.25V159.45H1506.19V157.45ZM1553.34 165.046H1566.92V163.046H1553.34V165.046ZM1566.92 165.046H1610.87V163.046H1566.92V165.046ZM1609.87 152.854V158.45H1611.87V152.854H1609.87ZM1609.87 158.45V164.046H1611.87V158.45H1609.87ZM1565.92 152.854V158.45H1567.92V152.854H1565.92ZM1565.92 158.45V164.046H1567.92V158.45H1565.92ZM1610.87 157.45H1566.92V159.45H1610.87V157.45ZM1610.87 165.046H1685.98V163.046H1610.87V165.046ZM1685.98 165.046H1733.12V163.046H1685.98V165.046ZM1733.12 165.046H1753.1V163.046H1733.12V165.046ZM1734.12 164.046V158.45H1732.12V164.046H1734.12ZM1734.12 158.45V152.854H1732.12V158.45H1734.12ZM1684.98 152.854V158.45H1686.98V152.854H1684.98ZM1684.98 158.45V164.046H1686.98V158.45H1684.98ZM1733.12 157.45L1685.98 157.45V159.45L1733.12 159.45V157.45ZM1775.47 165.046H1781.86V163.046H1775.47V165.046ZM1781.86 165.046H1824.21V163.046H1781.86V165.046ZM1824.21 165.046H1832.2V163.046H1824.21V165.046ZM1825.21 164.046V158.45H1823.21V164.046H1825.21ZM1825.21 158.45V152.855H1823.21V158.45H1825.21ZM1780.86 152.855V158.45H1782.86V152.855H1780.86ZM1780.86 158.45V164.046H1782.86V158.45H1780.86ZM1824.21 157.45H1781.86V159.45H1824.21V157.45ZM2263.48 164.046V183.233H2265.48V164.046H2263.48ZM2287.86 183.233V164.046H2285.86V183.233H2287.86ZM2287.86 164.046V160.849H2285.86V164.046H2287.86ZM2286.86 159.849H2264.48V161.849H2286.86V159.849ZM2263.48 160.849V164.046H2265.48V160.849H2263.48ZM2468.84 164.046V183.233H2470.84V164.046H2468.84ZM2491.61 183.233V160.849H2489.61V183.233H2491.61ZM2490.61 159.849H2469.84V161.849H2490.61V159.849ZM2468.84 160.849V164.046H2470.84V160.849H2468.84ZM2469.84 184.233H2486.62V182.233H2469.84V184.233ZM2486.62 184.233H2490.61V182.233H2486.62V184.233ZM2485.62 183.233V365.504H2487.62V183.233H2485.62ZM2486.62 366.504H2490.61V364.504H2486.62V366.504ZM2489.61 365.504V387.089H2491.61V365.504H2489.61ZM2065.72 387.089V370.3H2063.72V387.089H2065.72ZM2064.72 369.3H1894.53V371.3H2064.72V369.3ZM2065.72 275.967V164.046H2063.72V275.967H2065.72ZM2064.72 165.046H2071.91V163.046H2064.72V165.046ZM2070.91 164.046V345.518H2072.91V164.046H2070.91ZM2071.91 346.518H2097.48V344.518H2071.91V346.518ZM2096.48 345.518V376.696H2098.48V345.518H2096.48ZM2071.91 386.089H2064.72V388.089H2071.91V386.089ZM2070.91 376.696V387.089H2072.91V376.696H2070.91ZM2070.91 350.315V371.899H2072.91V350.315H2070.91ZM2071.91 372.899H2092.69V370.899H2071.91V372.899ZM2093.69 371.899V350.315H2091.69V371.899H2093.69ZM2092.69 349.315H2071.91V351.315H2092.69V349.315ZM2063.72 281.563V363.905H2065.72V281.563H2063.72ZM1901.92 363.905V281.563H1899.92V363.905H1901.92ZM1900.92 282.563H1993.61V280.563H1900.92V282.563ZM1993.61 362.905H1900.92V364.905H1993.61V362.905ZM1992.61 281.563V363.905H1994.61V281.563H1992.61ZM2064.72 362.905H2000V364.905H2064.72V362.905ZM2000 362.905H1993.61V364.905H2000V362.905ZM1993.61 282.563H2000V280.563H1993.61V282.563ZM2000 282.563H2064.72V280.563H2000V282.563ZM2001 363.905V281.563H1999V363.905H2001ZM2097.48 375.696H2093.49V377.696H2097.48V375.696ZM2093.49 375.696H2071.91V377.696H2093.49V375.696ZM2093.49 386.089H2071.91V388.089H2093.49V386.089ZM2092.49 376.696V387.089H2094.49V376.696H2092.49ZM2096.48 376.696V382.292H2098.48V376.696H2096.48ZM2264.68 382.292V363.905H2262.68V382.292H2264.68ZM2283.46 363.905V382.292H2285.46V363.905H2283.46ZM2284.46 381.292H2263.68V383.292H2284.46V381.292ZM2469.84 386.089H2093.49V388.089H2469.84V386.089ZM2468.84 382.292V387.089H2470.84V382.292H2468.84ZM2470.84 382.292V365.504H2468.84V382.292H2470.84ZM2469.84 366.504H2486.62V364.504H2469.84V366.504ZM2381.14 383.292H2469.84V381.292H2381.14V383.292ZM2380.14 164.046V382.292H2382.14V164.046H2380.14ZM2284.46 383.292H2375.55V381.292H2284.46V383.292ZM2375.55 383.292H2381.14V381.292H2375.55V383.292ZM2375.55 165.046H2381.14V163.046H2375.55V165.046ZM2376.55 382.292V164.046H2374.55V382.292H2376.55ZM2284.46 184.233H2286.86V182.233H2284.46V184.233ZM2283.46 183.233V363.905H2285.46V183.233H2283.46ZM2264.48 184.233H2279.67V182.233H2264.48V184.233ZM2279.67 184.233H2284.46V182.233H2279.67V184.233ZM2263.68 364.905H2279.67V362.905H2263.68V364.905ZM2279.67 364.905H2284.46V362.905H2279.67V364.905ZM2278.67 183.233V363.905H2280.67V183.233H2278.67ZM2174.99 383.292H2263.68V381.292H2174.99V383.292ZM2173.99 164.046V382.292H2175.99V164.046H2173.99ZM2097.48 383.292H2170.2V381.292H2097.48V383.292ZM2170.2 383.292H2174.99V381.292H2170.2V383.292ZM2170.2 165.046H2174.99V163.046H2170.2V165.046ZM2171.2 382.292V164.046H2169.2V382.292H2171.2ZM2453.86 165.046H2469.84V163.046H2453.86V165.046ZM2381.14 165.046H2409.11V163.046H2381.14V165.046ZM2409.11 165.046H2453.86V163.046H2409.11V165.046ZM2408.11 152.855V158.451H2410.11V152.855H2408.11ZM2408.11 158.451V164.046H2410.11V158.451H2408.11ZM2452.86 152.855V158.451H2454.86V152.855H2452.86ZM2452.86 158.451V164.046H2454.86V158.451H2452.86ZM2409.11 159.451H2453.86V157.451H2409.11V159.451ZM2353.98 165.046H2375.55V163.046H2353.98V165.046ZM2286.86 165.046H2309.23V163.046H2286.86V165.046ZM2309.23 165.046H2353.98V163.046H2309.23V165.046ZM2310.23 164.046V158.451H2308.23V164.046H2310.23ZM2310.23 158.451V152.855H2308.23V158.451H2310.23ZM2352.98 152.855V158.451H2354.98V152.855H2352.98ZM2352.98 158.451V164.046H2354.98V158.451H2352.98ZM2309.23 159.451L2353.98 159.451V157.451L2309.23 157.451V159.451ZM2240.51 165.046H2264.48V163.046H2240.51V165.046ZM2174.99 165.046H2197.36V163.046H2174.99V165.046ZM2197.36 165.046H2240.51V163.046H2197.36V165.046ZM2198.36 164.046V158.451H2196.36V164.046H2198.36ZM2198.36 158.451V152.855H2196.36V158.451H2198.36ZM2239.51 152.855V158.451H2241.51V152.855H2239.51ZM2239.51 158.451V164.046H2241.51V158.451H2239.51ZM2197.36 159.451L2240.51 159.451V157.451L2197.36 157.451V159.451ZM2132.64 165.046H2170.2V163.046H2132.64V165.046ZM2071.91 165.046H2089.49V163.046H2071.91V165.046ZM2089.49 165.046H2132.64V163.046H2089.49V165.046ZM2090.49 164.046V158.451H2088.49V164.046H2090.49ZM2090.49 158.451V152.855H2088.49V158.451H2090.49ZM2131.64 152.855V158.451H2133.64V152.855H2131.64ZM2131.64 158.451V164.046H2133.64V158.451H2131.64ZM2089.49 159.451L2132.64 159.451V157.451L2089.49 157.451V159.451ZM2490.61 386.089H2486.62V388.089H2490.61V386.089ZM2486.62 386.089H2469.84V388.089H2486.62V386.089ZM2485.62 387.089V471.829H2487.62V387.089H2485.62ZM2486.62 472.829H2490.61V470.829H2486.62V472.829ZM2489.61 471.829V496.611H2491.61V471.829H2489.61ZM2469.84 472.829H2486.62V470.829H2469.84V472.829ZM2490.61 495.611H2486.62V497.611H2490.61V495.611ZM2486.62 495.611H2469.84V497.611H2486.62V495.611ZM2485.62 496.611V672.487H2487.62V496.611H2485.62ZM2486.62 673.487H2490.61V671.487H2486.62V673.487ZM2489.61 672.487V694.071H2491.61V672.487H2489.61ZM2490.61 693.071H2469.84V695.071H2490.61V693.071ZM2469.84 673.487H2486.62V671.487H2469.84V673.487ZM2470.84 694.071V690.874H2468.84V694.071H2470.84ZM2470.84 690.874V672.487H2468.84V690.874H2470.84ZM2283.46 690.874V694.071H2285.46V690.874H2283.46ZM2284.46 693.071H2263.68V695.071H2284.46V693.071ZM2283.46 672.487V690.874H2285.46V672.487H2283.46ZM2262.68 471.829V496.611H2264.68V471.829H2262.68ZM2263.68 497.611H2284.46V495.611H2263.68V497.611ZM2284.46 470.829H2263.68V472.829H2284.46V470.829ZM2284.46 472.829H2469.84V470.829H2284.46V472.829ZM2470.84 496.611V475.826H2468.84V496.611H2470.84ZM2470.84 475.826V471.829H2468.84V475.826H2470.84ZM2285.46 496.611V475.826H2283.46V496.611H2285.46ZM2285.46 475.826V471.829H2283.46V475.826H2285.46ZM2469.84 474.826H2389.93V476.826H2469.84V474.826ZM2388.93 475.826V690.874H2390.93V475.826H2388.93ZM2389.93 474.826H2385.14V476.826H2389.93V474.826ZM2385.14 474.826H2284.46V476.826H2385.14V474.826ZM2389.93 689.874H2385.14V691.874H2389.93V689.874ZM2384.14 475.826V690.874H2386.14V475.826H2384.14ZM2283.46 496.611V632.515H2285.46V496.611H2283.46ZM2156.41 632.515V690.874H2158.41V632.515H2156.41ZM2264.68 694.071V690.874H2262.68V694.071H2264.68ZM2264.68 690.874V672.487H2262.68V690.874H2264.68ZM2263.68 631.515H2157.41V633.515H2263.68V631.515ZM2262.68 632.515V672.487H2264.68V632.515H2262.68ZM2284.46 631.515H2266.88V633.515H2284.46V631.515ZM2266.88 631.515H2263.68V633.515H2266.88V631.515ZM2263.68 673.487H2266.88V671.487H2263.68V673.487ZM2266.88 673.487H2284.46V671.487H2266.88V673.487ZM2265.88 632.515V672.487H2267.88V632.515H2265.88ZM2263.68 470.829H2248.5V472.829H2263.68V470.829ZM2247.5 471.829V626.119H2249.5V471.829H2247.5ZM2248.5 625.119H2208.55V627.119H2248.5V625.119ZM2209.55 626.119V471.829H2207.55V626.119H2209.55ZM2208.55 470.829H2203.76V472.829H2208.55V470.829ZM2202.76 471.829V490.216H2204.76V471.829H2202.76ZM2203.76 489.216H2079.11V491.216H2203.76V489.216ZM2080.11 490.216V471.829H2078.11V490.216H2080.11ZM2079.11 470.829H2055.13V472.829H2079.11V470.829ZM2055.13 497.611H2079.11V495.611H2055.13V497.611ZM2080.11 496.611V490.216H2078.11V496.611H2080.11ZM2054.13 471.829V490.216H2056.13V471.829H2054.13ZM2054.13 490.216V496.611H2056.13V490.216H2054.13ZM2055.13 489.216H2038.35V491.216H2055.13V489.216ZM2037.35 490.216V690.874H2039.35V490.216H2037.35ZM2038.35 691.874H2057.53V689.874H2038.35V691.874ZM2058.53 690.874V672.487H2056.53V690.874H2058.53ZM2057.53 673.487H2079.11V671.487H2057.53V673.487ZM2079.11 693.071H2057.53V695.071H2079.11V693.071ZM2058.53 694.071V690.874H2056.53V694.071H2058.53ZM2078.11 672.487V690.874H2080.11V672.487H2078.11ZM2078.11 690.874V694.071H2080.11V690.874H2078.11ZM2203.76 625.119H2157.41V627.119H2203.76V625.119ZM2158.41 626.119V612.529H2156.41V626.119H2158.41ZM2157.41 611.529H2107.87V613.529H2157.41V611.529ZM2079.11 691.874H2107.87V689.874H2079.11V691.874ZM2106.87 612.529V632.515H2108.87V612.529H2106.87ZM2106.87 632.515V690.874H2108.87V632.515H2106.87ZM2107.87 631.515H2046.35V633.515H2107.87V631.515ZM2046.35 497.611H2055.13V495.611H2046.35V497.611ZM2090.29 497.611H2203.76V495.611H2090.29V497.611ZM2089.29 496.611V554.97H2091.29V496.611H2089.29ZM2202.76 496.611V554.97H2204.76V496.611H2202.76ZM2090.29 555.97H2203.76V553.97H2090.29V555.97ZM2202.76 554.97V559.766H2204.76V554.97H2202.76ZM2202.76 559.766V626.119H2204.76V559.766H2202.76ZM2047.35 632.515V559.766H2045.35V632.515H2047.35ZM2047.35 559.766V554.97H2045.35V559.766H2047.35ZM2047.35 554.97V496.611H2045.35V554.97H2047.35ZM2046.35 555.97H2086.3V553.97H2046.35V555.97ZM2079.11 497.611H2086.3V495.611H2079.11V497.611ZM2086.3 497.611H2090.29V495.611H2086.3V497.611ZM2087.3 554.97V496.611H2085.3V554.97H2087.3ZM2107.87 558.766H2046.35V560.766H2107.87V558.766ZM2106.87 559.766V588.546H2108.87V559.766H2106.87ZM2107.87 589.546H2112.67V587.546H2107.87V589.546ZM2203.76 558.766H2112.67V560.766H2203.76V558.766ZM2112.67 558.766H2107.87V560.766H2112.67V558.766ZM2113.67 588.546V559.766H2111.67V588.546H2113.67ZM2469.84 689.874H2399.52V691.874H2469.84V689.874ZM2399.52 689.874H2389.93V691.874H2399.52V689.874ZM2385.14 689.874H2336.4V691.874H2385.14V689.874ZM2336.4 689.874H2284.46V691.874H2336.4V689.874ZM2337.4 703.665V697.269H2335.4V703.665H2337.4ZM2337.4 697.269V690.874H2335.4V697.269H2337.4ZM2398.52 690.874V697.269H2400.52V690.874H2398.52ZM2398.52 697.269V703.665H2400.52V697.269H2398.52ZM2336.4 698.269H2399.52V696.269H2336.4V698.269ZM2157.41 691.874H2200.56V689.874H2157.41V691.874ZM2200.56 691.874H2263.68V689.874H2200.56V691.874ZM2107.87 691.874H2135.84V689.874H2107.87V691.874ZM2135.84 691.874H2157.41V689.874H2135.84V691.874ZM2136.84 703.665V697.269H2134.84V703.665H2136.84ZM2136.84 697.269V690.874H2134.84V697.269H2136.84ZM2199.56 690.874V697.269H2201.56V690.874H2199.56ZM2199.56 697.269V703.665H2201.56V697.269H2199.56ZM2135.84 698.269H2200.56V696.269H2135.84V698.269ZM1874.35 672.487V690.874H1876.35V672.487H1874.35ZM1874.35 690.874V694.071H1876.35V690.874H1874.35ZM1931.28 689.874H1875.35V691.874H1931.28V689.874ZM2038.35 689.874H1991.21V691.874H2038.35V689.874ZM1991.21 689.874H1931.28V691.874H1991.21V689.874ZM1990.21 690.874V697.269H1992.21V690.874H1990.21ZM1990.21 697.269V703.665H1992.21V697.269H1990.21ZM1930.28 690.874V697.269H1932.28V690.874H1930.28ZM1930.28 697.269V703.665H1932.28V697.269H1930.28ZM1991.21 696.269H1931.28V698.269H1991.21V696.269ZM946.057 472.029L1124.24 473.502L1124.26 471.502L946.073 470.029L946.057 472.029ZM1124.25 494.413H1145.83V492.413H1124.25V494.413ZM1124.24 473.502L1145.82 473.681L1145.83 471.681L1124.26 471.502L1124.24 473.502ZM1145.82 473.681L1337.59 475.266L1337.6 473.267L1145.83 471.681L1145.82 473.681ZM1337.6 494.413H1358.37V492.413H1337.6V494.413ZM1337.59 475.266L1358.36 475.438L1358.38 473.438L1337.6 473.267L1337.59 475.266ZM1358.36 475.438L1526.16 476.826L1526.18 474.826L1358.38 473.438L1358.36 475.438ZM1527.17 498.21V480.622H1525.17V498.21H1527.17ZM1527.17 480.622V475.826H1525.17V480.622H1527.17ZM1359.37 493.413V478.224H1357.37V493.413H1359.37ZM1359.37 478.224V474.438H1357.37V478.224H1359.37ZM1526.18 479.622L1358.38 477.224L1358.36 479.224L1526.16 481.622L1526.18 479.622ZM1336.6 474.266V478.224H1338.6V474.266H1336.6ZM1336.6 478.224V493.413H1338.6V478.224H1336.6ZM1146.83 493.413V476.625H1144.83V493.413H1146.83ZM1146.83 476.625V472.681H1144.83V476.625H1146.83ZM1337.6 477.224L1145.83 475.625L1145.82 477.625L1337.59 479.224L1337.6 477.224ZM1123.25 472.502V476.625H1125.25V472.502H1123.25ZM1123.25 476.625V493.413H1125.25V476.625H1123.25ZM947.065 493.413V474.438H945.065V493.413H947.065ZM947.065 474.438V471.029H945.065V474.438H947.065ZM1124.26 475.625L946.077 473.438L946.053 475.438L1124.24 477.625L1124.26 475.625ZM2006.39 165.046H2064.72V163.046H2006.39V165.046ZM2006.39 276.967H2064.72V274.967H2006.39V276.967ZM2005.39 164.046V220.007H2007.39V164.046H2005.39ZM1838.59 165.046H1895.33V163.046H1838.59V165.046ZM1896.33 219.207V164.046H1894.33V219.207H1896.33ZM1895.33 165.046H1905.71V163.046H1895.33V165.046ZM1905.72 218.282L1895.33 218.207L1895.32 220.207L1905.71 220.282L1905.72 218.282ZM1904.71 164.046V219.282H1906.71V164.046H1904.71ZM1916.91 218.363L1905.72 218.282L1905.71 220.282L1916.89 220.363L1916.91 218.363ZM1905.71 165.046H1916.9V163.046H1905.71V165.046ZM1917.9 219.363V164.046H1915.9V219.363H1917.9ZM1916.9 165.046H1928.09V163.046H1916.9V165.046ZM1928.09 218.443L1916.91 218.363L1916.89 220.363L1928.08 220.443L1928.09 218.443ZM1927.09 164.046V219.443H1929.09V164.046H1927.09ZM1938.48 218.518L1928.09 218.443L1928.08 220.443L1938.47 220.518L1938.48 218.518ZM1928.09 165.046H1938.47V163.046H1928.09V165.046ZM1939.47 219.518V164.046H1937.47V219.518H1939.47ZM1938.47 165.046H1948.86V163.046H1938.47V165.046ZM1948.87 218.593L1938.48 218.518L1938.47 220.518L1948.85 220.593L1948.87 218.593ZM1947.86 164.046V219.593H1949.86V164.046H1947.86ZM1957.66 218.656L1948.87 218.593L1948.85 220.593L1957.64 220.656L1957.66 218.656ZM1948.86 165.046H1957.65V163.046H1948.86V165.046ZM1958.65 219.656V164.046H1956.65V219.656H1958.65ZM1957.65 165.046H1966.44V163.046H1957.65V165.046ZM1966.45 218.719L1957.66 218.656L1957.64 220.656L1966.43 220.719L1966.45 218.719ZM1965.44 164.046V219.719H1967.44V164.046H1965.44ZM1976.04 218.788L1966.45 218.719L1966.43 220.719L1976.02 220.788L1976.04 218.788ZM1966.44 165.046H1976.03V163.046H1966.44V165.046ZM1977.03 219.788V164.046H1975.03V219.788H1977.03ZM1976.03 165.046H1985.62V163.046H1976.03V165.046ZM1985.63 218.857L1976.04 218.788L1976.02 220.788L1985.61 220.857L1985.63 218.857ZM1984.62 164.046V219.857H1986.62V164.046H1984.62ZM2006.4 219.007L1996.01 218.932L1996 220.932L2006.39 221.007L2006.4 219.007ZM1996.01 218.932L1985.63 218.857L1985.61 220.857L1996 220.932L1996.01 218.932ZM1985.62 165.046H1996.01V163.046H1985.62V165.046ZM1996.01 165.046H2006.39V163.046H1996.01V165.046ZM1997.01 219.932V164.046H1995.01V219.932H1997.01ZM1894.33 219.207V225.603H1896.33V219.207H1894.33ZM2005.39 220.007V225.603H2007.39V220.007H2005.39ZM2005.39 225.603V275.967H2007.39V225.603H2005.39ZM1996.01 226.603H2006.39V224.603H1996.01V226.603ZM1996.01 276.967H2006.39V274.967H1996.01V276.967ZM1995.01 225.603V275.967H1997.01V225.603H1995.01ZM1985.62 276.967H1996.01V274.967H1985.62V276.967ZM1985.62 226.603H1996.01V224.603H1985.62V226.603ZM1986.62 275.967V225.603H1984.62V275.967H1986.62ZM1976.03 226.603H1985.62V224.603H1976.03V226.603ZM1976.03 276.967H1985.62V274.967H1976.03V276.967ZM1975.03 225.603V275.967H1977.03V225.603H1975.03ZM1966.44 226.603H1976.03V224.603H1966.44V226.603ZM1966.44 276.967H1976.03V274.967H1966.44V276.967ZM1965.44 225.603V275.967H1967.44V225.603H1965.44ZM1957.65 226.603H1966.44V224.603H1957.65V226.603ZM1957.65 276.967H1966.44V274.967H1957.65V276.967ZM1956.65 225.603V275.967H1958.65V225.603H1956.65ZM1948.86 226.603H1957.65V224.603H1948.86V226.603ZM1948.86 276.967H1957.65V274.967H1948.86V276.967ZM1947.86 225.603V275.967H1949.86V225.603H1947.86ZM1938.47 226.603H1948.86V224.603H1938.47V226.603ZM1938.47 276.967H1948.86V274.967H1938.47V276.967ZM1937.47 225.603V275.967H1939.47V225.603H1937.47ZM1928.09 226.603H1938.47V224.603H1928.09V226.603ZM1928.09 276.967H1938.47V274.967H1928.09V276.967ZM1927.09 225.603V275.967H1929.09V225.603H1927.09ZM1916.9 226.603H1928.09V224.603H1916.9V226.603ZM1916.9 276.967H1928.09V274.967H1916.9V276.967ZM1915.9 225.603V275.967H1917.9V225.603H1915.9ZM1894.53 276.967H1905.71V274.967H1894.53V276.967ZM1905.71 276.967H1916.9V274.967H1905.71V276.967ZM1895.33 226.603H1906.11V224.603H1895.33V226.603ZM1906.11 226.603H1916.9V224.603H1906.11V226.603ZM1906.71 275.975L1907.11 225.611L1905.11 225.595L1904.71 275.959L1906.71 275.975ZM1895.53 343.919V275.967H1893.53V343.919H1895.53ZM1837.59 164.046V343.919H1839.59V164.046H1837.59ZM1894.53 342.919H1838.59V344.919H1894.53V342.919ZM1837.59 343.919V351.114H1839.59V343.919H1837.59ZM1837.59 351.114V417.467H1839.59V351.114H1837.59ZM1895.53 370.3V351.114H1893.53V370.3H1895.53ZM1895.53 351.114V343.919H1893.53V351.114H1895.53ZM1838.59 352.114H1894.53V350.114H1838.59V352.114ZM1020.18 367.103V384.69H1022.18V367.103H1020.18ZM1021.18 385.69H1069.12V383.69H1021.18V385.69ZM1017.18 389.687H1069.12V387.687H1017.18V389.687ZM1069.12 389.687H1077.11V387.687H1069.12V389.687ZM1068.12 384.69V388.687H1070.12V384.69H1068.12ZM1070.72 163.046H1069.12V165.046H1070.72V163.046ZM1069.12 163.046H994.008V165.046H1069.12V163.046ZM966.84 373.699H1017.18V371.699H966.84V373.699ZM965.84 372.699V390.286H967.84V372.699H965.84ZM966.84 389.286H928.486V391.286H966.84V389.286ZM924.491 373.699H928.486V371.699H924.491V373.699ZM928.486 373.699H966.84V371.699H928.486V373.699ZM929.486 390.286V372.699H927.486V390.286H929.486ZM946.065 470.029H928.486V472.029H946.065V470.029ZM928.486 470.029H924.491V472.029H928.486V470.029ZM927.486 390.286V471.029H929.486V390.286H927.486ZM518.752 170.461L510.762 176.856L512.011 178.417L520.002 172.022L518.752 170.461ZM512.232 177.103L502.644 161.914L500.952 162.981L510.541 178.171L512.232 177.103ZM501.202 161.645L476.432 180.032L477.624 181.637L502.394 163.25L501.202 161.645ZM476.225 181.43L494.602 206.213L496.209 205.021L477.831 180.239L476.225 181.43ZM520.117 185.758L512.127 176.964L510.646 178.309L518.637 187.103L520.117 185.758ZM477.896 180.339L474.7 174.743L472.963 175.734L476.159 181.33L477.896 180.339ZM235.516 175.238V188.829H237.516V175.238H235.516ZM214.942 169.044H236.516V167.044H214.942V169.044ZM235.516 168.044V175.238H237.516V168.044H235.516ZM215.942 188.829V175.238H213.942V188.829H215.942ZM215.942 175.238V168.044H213.942V175.238H215.942ZM214.942 174.238H28.7655V176.238H214.942V174.238ZM29.7655 175.238V168.044H27.7655V175.238H29.7655ZM28.7655 167.044H7.19137V169.044H28.7655V167.044ZM6.19137 168.044V188.829H8.19137V168.044H6.19137ZM29.7655 188.829V175.238H27.7655V188.829H29.7655ZM7.19137 189.829H13.5837V187.829H7.19137V189.829ZM13.5837 189.829H28.7655V187.829H13.5837V189.829ZM12.5837 188.829V316.738H14.5837V188.829H12.5837ZM13.5837 315.738H7.19137V317.738H13.5837V315.738ZM6.19137 316.738V337.524H8.19137V316.738H6.19137ZM29.7655 337.524V316.738H27.7655V337.524H29.7655ZM28.7655 315.738H13.5837V317.738H28.7655V315.738ZM7.19137 338.524H13.5837V336.524H7.19137V338.524ZM13.5837 338.524H28.7655V336.524H13.5837V338.524ZM13.5837 493.213H7.19137V495.213H13.5837V493.213ZM6.19137 494.213V515.797H8.19137V494.213H6.19137ZM29.7655 515.797V494.213H27.7655V515.797H29.7655ZM28.7655 493.213H13.5837V495.213H28.7655V493.213ZM7.19137 516.797H13.5837V514.797H7.19137V516.797ZM13.5837 516.797H28.7655V514.797H13.5837V516.797ZM12.5837 515.797V701.266H14.5837V515.797H12.5837ZM13.5837 700.266H7.19137V702.266H13.5837V700.266ZM6.19137 701.266V722.051H8.19137V701.266H6.19137ZM7.19137 723.051H28.7655V721.051H7.19137V723.051ZM28.7655 700.266H13.5837V702.266H28.7655V700.266ZM29.7655 722.051V717.255H27.7655V722.051H29.7655ZM29.7655 717.255V701.266H27.7655V717.255H29.7655ZM142.847 691.477L137.733 717.059L139.694 717.451L144.808 691.869L142.847 691.477ZM137.733 717.059L137.254 719.458L139.215 719.85L139.694 717.451L137.733 717.059ZM28.7655 718.255H138.714V716.255H28.7655V718.255ZM213.611 477.472L241.577 495.059L242.642 493.366L214.675 475.779L213.611 477.472ZM241.294 493.634L223.715 518.417L225.346 519.574L242.925 494.791L241.294 493.634ZM225.11 518.18L200.339 500.592L199.181 502.223L223.952 519.811L225.11 518.18ZM200.625 501.91L215.008 477.127L213.278 476.123L198.895 500.906L200.625 501.91ZM384.534 1046.51L371.749 928.997L369.761 929.214L382.546 1046.73L384.534 1046.51ZM340.99 901.125V925.108H342.99V901.125H340.99ZM371.755 929.105V925.108H369.755V929.105H371.755ZM371.755 925.108V901.125H369.755V925.108H371.755ZM371.747 901.254L391.723 747.762L389.74 747.504L369.764 900.996L371.747 901.254ZM391.701 747.876L398.094 722.294L396.153 721.809L389.761 747.391L391.701 747.876ZM368.464 716.26L172.699 695.476L172.487 697.464L368.253 718.249L368.464 716.26ZM166.373 726.285L172.399 701.502L170.455 701.03L164.43 725.813L166.373 726.285ZM172.399 701.502L173.565 696.706L171.621 696.234L170.455 701.03L172.399 701.502ZM367.374 717.076L366.503 721.873L368.47 722.23L369.342 717.434L367.374 717.076ZM366.503 721.873L362.58 743.457L364.548 743.815L368.47 722.23L366.503 721.873ZM171.321 702.261L367.381 723.046L367.592 721.057L171.532 700.272L171.321 702.261ZM433.152 601.83L446.735 577.847L444.995 576.861L431.411 600.844L433.152 601.83ZM526.529 486.07L545.706 463.685L544.187 462.384L525.01 484.768L526.529 486.07ZM545.64 462.314L524.865 442.328L523.478 443.77L544.253 463.755L545.64 462.314ZM918.3 457.439V390.286H916.3V457.439H918.3ZM917.3 389.286H822.214V391.286H917.3V389.286ZM823.214 390.286V337.524H821.214V390.286H823.214ZM822.492 338.484L932.76 306.507L932.203 304.586L821.935 336.563L822.492 338.484ZM992.564 119.114L1025.32 15.6535L1023.42 15.0498L990.657 118.51L992.564 119.114ZM991.763 117.824L932.634 108.697L932.329 110.673L991.458 119.801L991.763 117.824ZM933.427 110.01L942.217 84.4279L940.325 83.778L931.536 109.36L933.427 110.01ZM1024.41 14.3524C997.781 13.3397 959.476 14.8671 913.973 20.8363L914.234 22.8193C959.646 16.862 997.837 15.3432 1024.33 16.3509L1024.41 14.3524ZM942.187 83.7031L915.02 21.428L913.187 22.2277L940.354 84.5028L942.187 83.7031ZM913.973 20.8363C907.707 21.6584 901.304 22.5647 894.776 23.5603L895.077 25.5374C901.592 24.544 907.981 23.6396 914.234 22.8193L913.973 20.8363ZM894.017 24.9647L921.984 86.1177L923.802 85.2859L895.836 24.133L894.017 24.9647ZM921.925 85.451L916.332 107.036L918.268 107.537L923.861 85.9527L921.925 85.451ZM917.034 106.322L716.475 161.483L717.005 163.412L917.565 108.251L917.034 106.322ZM894.776 23.5603C831.965 33.1393 757.568 50.9824 682.007 81.5328L682.756 83.387C758.15 52.9042 832.393 35.097 895.077 25.5374L894.776 23.5603ZM717.659 162.053L683.3 82.0652L681.463 82.8546L715.821 162.842L717.659 162.053ZM682.007 81.5328C679.369 82.5991 676.73 83.681 674.09 84.7785L674.858 86.6252C677.492 85.5302 680.125 84.4509 682.756 83.387L682.007 81.5328ZM674.09 84.7785C621.551 106.622 568.619 134.674 518.794 170.429L519.96 172.054C569.644 136.401 622.438 108.419 674.858 86.6252L674.09 84.7785ZM673.565 86.117L770.964 299.566L772.784 298.736L675.384 85.2867L673.565 86.117ZM771.424 298.258L655.563 356.616L656.463 358.403L772.324 300.044L771.424 298.258ZM656.737 356.819L639.957 339.232L638.51 340.612L655.29 358.2L656.737 356.819ZM638.569 339.175L616.995 358.361L618.324 359.856L639.898 340.669L638.569 339.175ZM616.884 359.74L634.463 381.325L636.013 380.062L618.434 358.477L616.884 359.74ZM635.878 381.461L659.85 361.475L658.569 359.939L634.598 379.925L635.878 381.461ZM659.917 360L656.72 356.803L655.306 358.216L658.502 361.414L659.917 360ZM659.652 361.604L776.312 304.045L775.427 302.251L658.767 359.81L659.652 361.604ZM883.098 274.663L931.839 116.375L929.928 115.786L881.186 274.074L883.098 274.663ZM933.435 305.848L990.898 124.377L988.991 123.773L931.528 305.244L933.435 305.848ZM990.898 124.377L992.564 119.114L990.657 118.51L988.991 123.773L990.898 124.377ZM930.749 117.071L989.81 125.066L990.078 123.084L931.018 115.089L930.749 117.071ZM776.131 304.113L779.327 303.248L778.804 301.317L775.608 302.183L776.131 304.113ZM830.865 289.291L882.403 275.334L881.88 273.403L830.342 287.36L830.865 289.291ZM919.443 115.113L789.998 149.057L790.506 150.991L919.95 117.048L919.443 115.113ZM789.998 149.057L785.204 150.314L785.711 152.249L790.506 150.991L789.998 149.057ZM785.204 150.314L721.281 167.076L721.788 169.011L785.711 152.249L785.204 150.314ZM779.327 303.248L826.47 290.481L825.948 288.55L778.804 301.317L779.327 303.248ZM826.47 290.481L830.865 289.291L830.342 287.36L825.948 288.55L826.47 290.481ZM807.432 205.337L791.212 149.744L789.292 150.304L805.512 205.897L807.432 205.337ZM806.789 206.565L909.626 172.19L908.992 170.293L806.155 204.669L806.789 206.565ZM910.292 171.426L920.68 116.265L918.714 115.895L908.327 171.056L910.292 171.426ZM902.76 180.542L875.592 269.279L877.505 269.864L904.672 181.127L902.76 180.542ZM831.564 288.045L830.057 282.882L828.137 283.442L829.644 288.605L831.564 288.045ZM876.273 268.61L828.822 282.201L829.372 284.123L876.824 270.533L876.273 268.61ZM830.057 282.882L808.832 210.133L806.912 210.694L828.137 283.442L830.057 282.882ZM808.832 210.133L807.432 205.337L805.512 205.897L806.912 210.694L808.832 210.133ZM903.421 179.879L807.577 209.458L808.167 211.369L904.011 181.79L903.421 179.879ZM784.499 151.564L791.09 173.922L793.008 173.357L786.417 150.998L784.499 151.564ZM720.615 168.437L732.607 196.418L734.445 195.63L722.454 167.65L720.615 168.437ZM791.692 172.706L733.169 195.09L733.883 196.958L792.406 174.574L791.692 172.706ZM791.09 173.922L800.988 207.499L802.906 206.933L793.008 173.357L791.09 173.922ZM732.607 196.418L745.969 227.596L747.807 226.808L734.445 195.63L732.607 196.418ZM801.606 206.276L746.547 226.262L747.229 228.142L802.288 208.156L801.606 206.276ZM800.988 207.499L812.3 245.871L814.219 245.306L802.906 206.933L800.988 207.499ZM812.3 245.871L825.25 289.798L827.168 289.233L814.219 245.306L812.3 245.871ZM745.969 227.596L762.058 265.136L763.896 264.348L747.807 226.808L745.969 227.596ZM762.058 265.136L778.146 302.676L779.985 301.888L763.896 264.348L762.058 265.136ZM812.903 244.654L762.621 263.808L763.333 265.677L813.615 246.523L812.903 244.654ZM988.414 332.128H1023.57V330.128H988.414V332.128ZM989.848 322.847L987.456 330.842L989.372 331.415L991.764 323.42L989.848 322.847ZM991.075 322.171L945.344 309.38L944.805 311.306L990.537 324.097L991.075 322.171ZM947.869 298.834L944.126 310.026L946.023 310.66L949.766 299.468L947.869 298.834ZM993.05 312.146L989.848 322.847L991.764 323.42L994.966 312.719L993.05 312.146ZM948.536 300.11L993.726 313.392L994.29 311.473L949.1 298.191L948.536 300.11ZM996.246 301.462L993.05 312.146L994.966 312.719L998.162 302.035L996.246 301.462ZM951.49 288.008L947.869 298.834L949.766 299.468L953.387 288.643L951.49 288.008ZM997.491 300.791L952.726 287.367L952.151 289.283L996.917 302.707L997.491 300.791ZM955.089 277.249L951.49 288.008L953.387 288.643L956.986 277.883L955.089 277.249ZM999.176 291.669L996.246 301.462L998.162 302.035L1001.09 292.242L999.176 291.669ZM955.727 278.517L999.823 292.907L1000.44 291.005L956.348 276.615L955.727 278.517ZM1001.81 282.875L999.176 291.669L1001.09 292.242L1003.72 283.449L1001.81 282.875ZM958.565 266.856L955.089 277.249L956.986 277.883L960.462 267.491L958.565 266.856ZM1003.11 282.224L959.86 266.235L959.167 268.111L1002.42 284.1L1003.11 282.224ZM962.041 256.464L958.565 266.856L960.462 267.491L963.938 257.098L962.041 256.464ZM1005.04 272.083L1001.81 282.875L1003.72 283.449L1006.95 272.656L1005.04 272.083ZM962.649 257.721L1005.65 273.31L1006.33 271.429L963.331 255.841L962.649 257.721ZM1007.79 262.89L1005.04 272.083L1006.95 272.656L1009.7 263.463L1007.79 262.89ZM965.437 246.311L962.041 256.464L963.938 257.098L967.334 246.946L965.437 246.311ZM1009.11 262.245L966.749 245.697L966.021 247.56L1008.38 264.108L1009.11 262.245ZM968.726 236.478L965.437 246.311L967.334 246.946L970.623 237.112L968.726 236.478ZM1010.66 253.296L1007.79 262.89L1009.7 263.463L1012.57 253.87L1010.66 253.296ZM969.303 237.723L1011.24 254.511L1011.99 252.655L970.046 235.867L969.303 237.723ZM1013.53 243.703L1010.66 253.296L1012.57 253.87L1015.44 244.276L1013.53 243.703ZM971.935 226.884L968.726 236.478L970.623 237.112L973.832 227.519L971.935 226.884ZM1014.86 243.062L973.258 226.274L972.509 228.129L1014.11 244.917L1014.86 243.062ZM1016.22 234.691L1013.53 243.703L1015.44 244.276L1018.14 235.264L1016.22 234.691ZM974.876 218.091L971.935 226.884L973.832 227.519L976.773 218.725L974.876 218.091ZM1017.55 234.05L976.197 217.48L975.453 219.336L1016.81 235.906L1017.55 234.05ZM1018.55 226.915L1016.22 234.691L1018.14 235.264L1020.46 227.488L1018.55 226.915ZM977.55 210.096L974.876 218.091L976.773 218.725L979.447 210.731L977.55 210.096ZM1019.89 226.276L978.878 209.488L978.12 211.339L1019.13 228.127L1019.89 226.276ZM980.492 201.303L977.55 210.096L979.447 210.731L982.388 201.937L980.492 201.303ZM1022.61 213.325L1020.7 219.72L1022.62 220.293L1024.53 213.898L1022.61 213.325ZM1020.7 219.72L1018.55 226.915L1020.46 227.488L1022.62 220.293L1020.7 219.72ZM981.024 202.529L1021.24 220.916L1022.07 219.097L981.856 200.71L981.024 202.529ZM993.059 163.729L982.898 194.108L984.795 194.742L994.956 164.364L993.059 163.729ZM982.898 194.108L980.492 201.303L982.388 201.937L984.795 194.742L982.898 194.108ZM1024.01 212.711L984.282 193.524L983.412 195.325L1023.14 214.512L1024.01 212.711ZM1070.12 213.611V164.046H1068.12V213.611H1070.12ZM1023.57 214.611H1069.12V212.611H1023.57V214.611ZM1070.12 220.007V213.611H1068.12V220.007H1070.12ZM1024.57 220.007V213.611H1022.57V220.007H1024.57ZM1069.12 219.007H1023.57V221.007H1069.12V219.007ZM1024.57 228.001V220.007H1022.57V228.001H1024.57ZM1070.12 228.001V220.007H1068.12V228.001H1070.12ZM1023.57 229.001H1069.12V227.001H1023.57V229.001ZM1024.57 235.995V228.001H1022.57V235.995H1024.57ZM1024.57 243.99V235.995H1022.57V243.99H1024.57ZM1069.12 242.99H1023.57V244.99H1069.12V242.99ZM1070.12 243.99V235.995H1068.12V243.99H1070.12ZM1070.12 235.995V228.001H1068.12V235.995H1070.12ZM1070.12 252.784V243.99H1068.12V252.784H1070.12ZM1024.57 252.784V243.99H1022.57V252.784H1024.57ZM1069.12 251.784H1023.57V253.784H1069.12V251.784ZM1024.57 260.778V252.784H1022.57V260.778H1024.57ZM1070.12 260.778V252.784H1068.12V260.778H1070.12ZM1023.57 261.778H1069.12V259.778H1023.57V261.778ZM1070.12 269.572V260.778H1068.12V269.572H1070.12ZM1024.57 269.572V260.778H1022.57V269.572H1024.57ZM1069.12 268.572H1023.57V270.572H1069.12V268.572ZM1070.12 277.566V269.572H1068.12V277.566H1070.12ZM1024.57 277.566V269.572H1022.57V277.566H1024.57ZM1069.12 276.566H1023.57V278.566H1069.12V276.566ZM1024.57 286.36V277.566H1022.57V286.36H1024.57ZM1070.12 286.36V277.566H1068.12V286.36H1070.12ZM1023.57 287.36H1069.12V285.36H1023.57V287.36ZM1070.12 294.354V286.36H1068.12V294.354H1070.12ZM1024.57 294.354V286.36H1022.57V294.354H1024.57ZM1069.12 293.354H1023.57V295.354H1069.12V293.354ZM1070.12 302.349V294.354H1068.12V302.349H1070.12ZM1024.57 302.349V294.354H1022.57V302.349H1024.57ZM1069.12 301.349H1023.57V303.349H1069.12V301.349ZM1024.57 310.343V302.349H1022.57V310.343H1024.57ZM1070.12 310.343V302.349H1068.12V310.343H1070.12ZM1023.57 311.343H1069.12V309.343H1023.57V311.343ZM1024.57 316.738V310.343H1022.57V316.738H1024.57ZM1070.12 316.738V310.343H1068.12V316.738H1070.12ZM1023.57 317.738H1069.12V315.738H1023.57V317.738ZM1070.12 384.69V323.134H1068.12V384.69H1070.12ZM1070.12 323.134V316.738H1068.12V323.134H1070.12ZM1024.57 331.128V323.134H1022.57V331.128H1024.57ZM1024.57 323.134V316.738H1022.57V323.134H1024.57ZM1069.12 322.134H1023.57V324.134H1069.12V322.134ZM944.126 310.026L929.935 352.452L931.832 353.087L946.023 310.66L944.126 310.026ZM929.935 352.452L925.141 366.785L927.037 367.42L931.832 353.087L929.935 352.452ZM926.089 368.103H948.462V366.103H926.089V368.103ZM948.462 368.103H1021.18V366.103H948.462V368.103ZM930.251 353.544L947.83 367.878L949.094 366.328L931.515 351.994L930.251 353.544ZM931.534 312.113L915.553 359.589L917.448 360.227L933.429 312.751L931.534 312.113ZM916.501 358.908H870.955V360.908H916.501V358.908ZM871.955 359.932L872.754 326.355L870.755 326.308L869.956 359.884L871.955 359.932ZM871.977 327.306L932.705 313.407L932.258 311.457L871.531 325.357L871.977 327.306ZM865.161 328.73V363.105H867.161V328.73H865.161ZM866.161 364.105H887.735V362.105H866.161V364.105ZM886.735 363.105V386.289H888.735V363.105H886.735ZM887.735 385.289H826.209V387.289H887.735V385.289ZM827.209 386.289V339.922H825.209V386.289H827.209ZM826.479 340.885L866.431 329.693L865.891 327.767L825.939 338.959L826.479 340.885ZM889.931 363.105V373.498H891.931V363.105H889.931ZM890.931 374.498H914.104V372.498H890.931V374.498ZM915.078 373.723L917.475 363.33L915.526 362.881L913.129 373.273L915.078 373.723ZM916.501 362.105H890.931V364.105H916.501V362.105ZM917.3 456.439H833.4V458.439H917.3V456.439ZM834.4 457.439V430.258H832.4V457.439H834.4ZM833.4 429.258H820.616V431.258H833.4V429.258ZM819.616 430.258V435.055H821.616V430.258H819.616ZM820.616 436.055H827.807V434.055H820.616V436.055ZM826.807 435.055V569.359H828.807V435.055H826.807ZM827.807 568.359H788.654V570.359H827.807V568.359ZM789.654 569.359V435.055H787.654V569.359H789.654ZM788.654 436.055H796.644V434.055H788.654V436.055ZM797.644 435.055V430.258H795.644V435.055H797.644ZM720.534 414.264L720.451 430.253L722.451 430.263L722.534 414.275L720.534 414.264ZM796.644 429.258H721.451V431.258H796.644V429.258ZM720.451 430.253L720.425 435.049L722.425 435.06L722.451 430.263L720.451 430.253ZM782.262 434.055H721.425V436.055H782.262V434.055ZM781.262 435.055V569.359H783.262V435.055H781.262ZM720.425 435.049L719.721 569.354L721.721 569.365L722.425 435.06L720.425 435.049ZM782.262 568.359H720.721V570.359H782.262V568.359ZM719.721 569.354L719.692 574.95L721.692 574.961L721.721 569.365L719.721 569.354ZM719.692 574.95L718.137 871.54L720.137 871.551L721.692 574.961L719.692 574.95ZM893.127 569.359V574.956H895.127V569.359H893.127ZM893.127 574.956V591.744H895.127V574.956H893.127ZM720.692 575.956H894.127V573.956H720.692V575.956ZM834.4 569.359V463.035H832.4V569.359H834.4ZM833.4 464.035H914.104V462.035H833.4V464.035ZM915.702 568.359H912.505V570.359H915.702V568.359ZM912.505 568.359H894.127V570.359H912.505V568.359ZM913.104 463.02L911.506 569.344L913.505 569.375L915.103 463.05L913.104 463.02ZM894.127 568.359H833.4V570.359H894.127V568.359ZM525.015 484.763L445.11 576.698L446.62 578.01L526.524 486.075L525.015 484.763ZM506.618 463.669L521.8 482.161L523.346 480.891L508.164 462.4L506.618 463.669ZM521.8 482.161L524.996 486.053L526.542 484.784L523.346 480.891L521.8 482.161ZM446.367 576.489L442.239 574.091L441.234 575.82L445.363 578.219L446.367 576.489ZM442.239 574.091L421.597 562.099L420.593 563.829L441.234 575.82L442.239 574.091ZM521.817 480.872L440.981 574.301L442.493 575.61L523.329 482.18L521.817 480.872ZM420.232 562.458L409.459 580.845L411.184 581.857L421.958 563.47L420.232 562.458ZM409.459 580.845L406.648 585.642L408.374 586.653L411.184 581.857L409.459 580.845ZM410.783 580.464L361.628 554.882L360.705 556.656L409.86 582.238L410.783 580.464ZM362.167 555.769V455.04H360.167V555.769H362.167ZM513.337 454.397L506.625 462.392L508.157 463.678L514.869 455.683L513.337 454.397ZM361.167 456.04H514.103V454.04H361.167V456.04ZM523.405 442.406L518.371 448.402L519.903 449.688L524.937 443.692L523.405 442.406ZM518.371 448.402L513.337 454.397L514.869 455.683L519.903 449.688L518.371 448.402ZM519.137 448.045H13.5837V450.045H519.137V448.045ZM12.5837 449.045V455.04H14.5837V449.045H12.5837ZM12.5837 455.04V494.213H14.5837V455.04H12.5837ZM13.5837 456.04H355.573V454.04H13.5837V456.04ZM354.573 455.04V560.566H356.573V455.04H354.573ZM355.132 561.463L407.069 587.045L407.953 585.251L356.015 559.669L355.132 561.463ZM406.988 587L426.964 599.25L428.01 597.545L408.034 585.295L406.988 587ZM426.964 599.25L431.759 602.189L432.804 600.484L428.01 597.545L426.964 599.25ZM397.288 721.065L390.896 719.999L390.567 721.972L396.959 723.038L397.288 721.065ZM390.896 719.999L368.523 716.268L368.194 718.241L390.567 721.972L390.896 719.999ZM391.851 713.77L389.773 720.698L391.689 721.273L393.767 714.344L391.851 713.77ZM393.799 713.917L385.329 653.96L383.349 654.239L391.818 714.197L393.799 713.917ZM426.529 598.11L411.026 649.815L412.942 650.39L428.445 598.684L426.529 598.11ZM411.026 649.815L391.851 713.77L393.767 714.344L412.942 650.39L411.026 649.815ZM384.482 655.089L412.127 651.092L411.841 649.113L384.196 653.11L384.482 655.089ZM431.321 601.057L417.118 649.823L419.039 650.382L433.242 601.617L431.321 601.057ZM622.654 650.102V475.026H620.654V650.102H622.654ZM418.079 651.102H621.654V649.102H418.079V651.102ZM622.654 837.17V658.097H620.654V837.17H622.654ZM622.654 658.097V650.102H620.654V658.097H622.654ZM417.118 649.823L414.79 657.817L416.71 658.376L419.039 650.382L417.118 649.823ZM414.79 657.817L396.164 721.772L398.084 722.331L416.71 658.376L414.79 657.817ZM621.654 657.097H415.75V659.097H621.654V657.097ZM363.418 744.625L386.591 748.035L386.882 746.056L363.709 742.647L363.418 744.625ZM386.591 748.035L390.586 748.623L390.877 746.644L386.882 746.056L386.591 748.035ZM370.755 900.125H367.486V902.125H370.755V900.125ZM367.486 900.125H341.99V902.125H367.486V900.125ZM385.744 746.922L377.98 809.066L379.964 809.314L387.728 747.169L385.744 746.922ZM143.019 797.316L144.821 782.127L142.834 781.892L141.033 797.081L143.019 797.316ZM379.023 808.191L142.077 796.2L141.976 798.197L378.922 810.188L379.023 808.191ZM139.227 829.294L142.545 801.313L140.559 801.078L137.241 829.058L139.227 829.294ZM142.545 801.313L143.019 797.316L141.033 797.081L140.559 801.078L142.545 801.313ZM377.98 809.066L377.481 813.063L379.465 813.311L379.964 809.314L377.98 809.066ZM377.481 813.063L366.494 901.001L368.479 901.249L379.465 813.311L377.481 813.063ZM141.502 802.194L378.422 814.186L378.523 812.188L141.603 800.197L141.502 802.194ZM341.99 926.108H365.961V924.108H341.99V926.108ZM365.961 926.108H370.755V924.108H365.961V926.108ZM383.265 1045.66L380.069 1046.57L380.619 1048.5L383.815 1047.58L383.265 1045.66ZM380.069 1046.57L355.299 1053.66L355.848 1055.58L380.619 1048.5L380.069 1046.57ZM364.968 925.224L371.166 977.987L373.153 977.754L366.954 924.991L364.968 925.224ZM142.423 1003.46L141.624 996.936L139.639 997.179L140.438 1003.71L142.423 1003.46ZM372.049 976.877L141.32 1002.59L141.541 1004.58L372.27 978.864L372.049 976.877ZM146.418 1036.11L142.896 1007.33L140.911 1007.57L144.433 1036.35L146.418 1036.11ZM142.896 1007.33L142.423 1003.46L140.438 1003.71L140.911 1007.57L142.896 1007.33ZM371.166 977.987L371.73 982.784L373.716 982.55L373.153 977.754L371.166 977.987ZM371.73 982.784L379.351 1047.65L381.337 1047.42L373.716 982.55L371.73 982.784ZM142.01 1008.44L372.83 983.661L372.616 981.673L141.796 1006.46L142.01 1008.44ZM634.531 379.986L628.937 385.582L630.352 386.996L635.945 381.4L634.531 379.986ZM12.5837 390.286V449.045H14.5837V390.286H12.5837ZM629.638 385.289L13.5772 389.286L13.5902 391.286L629.651 387.289L629.638 385.289ZM12.5837 337.524V384.69H14.5837V337.524H12.5837ZM12.5837 384.69V390.286H14.5837V384.69H12.5837ZM13.5901 385.69L214.949 384.395L214.936 382.396L13.5773 383.69L13.5901 385.69ZM213.942 188.829V318.337H215.942V188.829H213.942ZM235.516 318.337V339.922H237.516V318.337H235.516ZM213.942 318.337V339.922H215.942V318.337H213.942ZM213.942 339.922V383.396H215.942V339.922H213.942ZM236.516 338.922H218.937V340.922H236.516V338.922ZM218.937 338.922H214.942V340.922H218.937V338.922ZM214.949 384.395L218.944 384.37L218.931 382.37L214.936 382.396L214.949 384.395ZM217.937 339.922V383.37H219.937V339.922H217.937ZM214.942 319.337H218.937V317.337H214.942V319.337ZM218.937 319.337H236.516V317.337H218.937V319.337ZM236.516 187.829H218.937V189.829H236.516V187.829ZM218.937 187.829H214.942V189.829H218.937V187.829ZM219.937 318.337V188.829H217.937V318.337H219.937ZM473.832 174.238H373.152V176.238H473.832V174.238ZM373.159 383.378L498.742 382.571L498.729 380.571L373.146 381.378L373.159 383.378ZM498.742 382.571L501.793 382.551L501.781 380.551L498.729 380.571L498.742 382.571ZM501.793 382.551L635.244 381.693L635.232 379.693L501.781 380.551L501.793 382.551ZM372.152 175.238V382.378H374.152V175.238H372.152ZM218.944 384.37L366.766 383.419L366.754 381.419L218.931 382.37L218.944 384.37ZM366.766 383.419L373.159 383.378L373.146 381.378L366.754 381.419L366.766 383.419ZM373.152 174.238H366.76V176.238H373.152V174.238ZM366.76 174.238H236.516V176.238H366.76V174.238ZM367.76 382.419V175.238H365.76V382.419H367.76ZM494.406 205.617V380.693H496.406V205.617H494.406ZM495.151 381.66L498.48 382.538L498.99 380.604L495.661 379.726L495.151 381.66ZM498.48 382.538L501.543 383.345L502.053 381.411L498.99 380.604L498.48 382.538ZM496.031 206.398L500.026 203.2L498.776 201.639L494.781 204.836L496.031 206.398ZM500.026 203.2L520.002 187.211L518.752 185.65L498.776 201.639L500.026 203.2ZM502.798 382.365L502.787 381.538L500.787 381.564L500.798 382.392L502.798 382.365ZM502.787 381.538L500.401 202.406L498.401 202.433L500.787 381.564L502.787 381.538ZM543.348 924.108H454.655V926.108H543.348V924.108ZM453.655 925.108V1014.64H455.655V925.108H453.655ZM453.68 1014.87L476.853 1114.8L478.801 1114.35L455.629 1014.42L453.68 1014.87ZM476.951 1115.06L540.874 1230.97L542.626 1230.01L478.702 1114.09L476.951 1115.06ZM593.819 1380.35L623.179 1306.01L621.319 1305.27L591.959 1379.62L593.819 1380.35ZM623.179 1306.01L709.68 1086.96L707.82 1086.23L621.319 1305.27L623.179 1306.01ZM541.068 1231.22L621.566 1306.37L622.931 1304.91L542.432 1229.76L541.068 1231.22ZM609.805 1202.06L654.552 1083.44L652.68 1082.73L607.934 1201.36L609.805 1202.06ZM653.616 1082.09H541.75V1084.09H653.616V1082.09ZM540.88 1083.58L607.999 1202.2L609.74 1201.22L542.62 1082.6L540.88 1083.58ZM1375.15 165.046H1418.3V163.046H1375.15V165.046ZM1069.12 234.995H1023.57V236.995H1069.12V234.995ZM137.435 738.041L139.407 738.375L139.428 738.252L139.433 738.127L137.435 738.041ZM130.244 780.411L128.272 780.076L128.26 780.145L128.253 780.215L130.244 780.411ZM125.45 829.176L123.459 828.98L123.455 829.024L123.452 829.067L125.45 829.176ZM123.052 873.145L121.055 873.036L121.052 873.091V873.145H123.052ZM123.052 946.693H121.052V946.74L121.055 946.788L123.052 946.693ZM125.45 997.057L123.452 997.152L123.456 997.241L123.468 997.329L125.45 997.057ZM131.043 1037.83L129.061 1038.1L129.069 1038.16L129.08 1038.21L131.043 1037.83ZM141.43 1090.59L139.468 1090.98L139.48 1091.04L139.496 1091.1L141.43 1090.59ZM161.406 1166.54L159.472 1167.05L159.485 1167.1L159.501 1167.14L161.406 1166.54ZM178.985 1221.7L180.891 1221.09L180.891 1221.09L178.985 1221.7ZM184.579 1239.29L182.673 1239.89L182.699 1239.98L182.733 1240.06L184.579 1239.29ZM202.957 1283.25L201.111 1284.03L201.135 1284.08L201.163 1284.14L202.957 1283.25ZM233.32 1344.81L231.526 1345.7L231.578 1345.8L231.642 1345.9L233.32 1344.81ZM352.377 1507.9L350.804 1509.13L350.873 1509.22L350.951 1509.3L352.377 1507.9ZM334.798 1485.51L336.371 1484.28L336.347 1484.25L336.321 1484.22L334.798 1485.51ZM261.287 1387.98L259.608 1389.07L259.61 1389.07L261.287 1387.98ZM283.66 1422.36L281.983 1423.45L282.033 1423.52L282.089 1423.59L283.66 1422.36ZM316.42 1463.93L314.85 1465.16L314.873 1465.19L314.898 1465.22L316.42 1463.93ZM399.521 1555.86L398.094 1557.26L398.17 1557.34L398.253 1557.41L399.521 1555.86ZM505.793 1643L504.525 1644.55L506.648 1646.29L507.654 1643.73L505.793 1643ZM711.946 1119.37V1117.37H710.584L710.085 1118.64L711.946 1119.37ZM924.491 1119.37V1121.37H926.491V1119.37H924.491ZM2501 703.665V705.665H2503V703.665H2501ZM2501 152.855H2503V150.855H2501V152.855ZM997.204 152.855L995.288 152.28L994.516 154.855H997.204V152.855ZM1042.75 0.96228L1044.66 1.53672L1045.38 -0.864487L1042.88 -1.03319L1042.75 0.96228ZM510.588 158.451V160.451H511.228L511.749 160.079L510.588 158.451ZM0 158.451V156.451H-2V158.451H0ZM0 730.845H-2V732.845H0V730.845ZM137.748 730.845L139.746 730.932L139.837 728.845H137.748V730.845ZM366.52 1522.29L367.946 1520.88L366.52 1522.29ZM536.008 1566.25L534.147 1565.52L536.008 1566.25ZM552.375 1524.68L554.235 1525.42L552.375 1524.68ZM574.511 1468.46L576.372 1469.19L574.511 1468.46ZM591.087 1426.35L592.948 1427.09L591.087 1426.35ZM924.491 703.665V701.665H922.491V703.665H924.491ZM1169 152.854V150.854V152.854ZM1211.35 152.854V150.854V152.854ZM1274.47 152.854V154.854V152.854ZM1316.02 152.854V154.854V152.854ZM1375.15 152.854V150.854V152.854ZM1418.3 152.854V154.854V152.854ZM1506.19 152.854V154.854V152.854ZM1566.92 152.854V150.854V152.854ZM1610.87 152.854V150.854V152.854ZM1685.98 152.854V154.854V152.854ZM1733.12 152.854V150.854V152.854ZM1781.86 152.855V150.855V152.855ZM1824.21 152.855V150.855V152.855ZM2453.86 152.855V154.855V152.855ZM2409.11 152.855V150.855V152.855ZM2353.98 152.855V154.855V152.855ZM2309.23 152.855V154.855V152.855ZM2240.51 152.855V150.855V152.855ZM2197.36 152.855V150.855V152.855ZM2132.64 152.855V154.855V152.855ZM2089.49 152.855V150.855V152.855ZM135.463 737.706L128.272 780.076L132.216 780.745L139.407 738.375L135.463 737.706ZM128.253 780.215L123.459 828.98L127.44 829.372L132.234 780.606L128.253 780.215ZM123.452 829.067L121.055 873.036L125.049 873.254L127.447 829.285L123.452 829.067ZM121.052 873.145V946.693H125.052V873.145H121.052ZM121.055 946.788L123.452 997.152L127.447 996.962L125.05 946.598L121.055 946.788ZM123.468 997.329L129.061 1038.1L133.024 1037.56L127.431 996.785L123.468 997.329ZM129.08 1038.21L139.468 1090.98L143.393 1090.2L133.005 1037.44L129.08 1038.21ZM139.496 1091.1L159.472 1167.05L163.341 1166.03L143.365 1090.08L139.496 1091.1ZM159.501 1167.14L177.08 1222.31L180.891 1221.09L163.312 1165.93L159.501 1167.14ZM177.079 1222.3L182.673 1239.89L186.485 1238.68L180.891 1221.09L177.079 1222.3ZM182.733 1240.06L201.111 1284.03L204.802 1282.48L186.424 1238.51L182.733 1240.06ZM201.163 1284.14L231.526 1345.7L235.114 1343.93L204.75 1282.37L201.163 1284.14ZM353.95 1506.66L336.371 1484.28L333.225 1486.75L350.804 1509.13L353.95 1506.66ZM231.642 1345.9L259.608 1389.07L262.965 1386.89L234.999 1343.72L231.642 1345.9ZM259.61 1389.07L281.983 1423.45L285.336 1421.27L262.963 1386.89L259.61 1389.07ZM282.089 1423.59L314.85 1465.16L317.991 1462.69L285.231 1421.12L282.089 1423.59ZM314.898 1465.22L333.276 1486.81L336.321 1484.22L317.943 1462.63L314.898 1465.22ZM398.253 1557.41L504.525 1644.55L507.061 1641.45L400.789 1554.32L398.253 1557.41ZM711.946 1121.37H924.491V1117.37H711.946V1121.37ZM2503 703.665V152.855H2499V703.665H2503ZM999.12 153.429L1044.66 1.53672L1040.83 0.387843L995.288 152.28L999.12 153.429ZM1042.88 -1.03319C947.744 -7.45028 708.066 15.1421 509.426 156.823L511.749 160.079C709.434 19.0796 948.116 -3.41611 1042.61 2.95775L1042.88 -1.03319ZM510.588 156.451H0V160.451H510.588V156.451ZM-2 158.451V730.845H2V158.451H-2ZM135.75 730.758L135.437 737.954L139.433 738.127L139.746 730.932L135.75 730.758ZM0 732.845H137.748V728.845H0V732.845ZM350.951 1509.3L365.093 1523.69L367.946 1520.88L353.804 1506.49L350.951 1509.3ZM365.093 1523.69L398.094 1557.26L400.947 1554.46L367.946 1520.88L365.093 1523.69ZM507.654 1643.73L537.869 1566.99L534.147 1565.52L503.932 1642.27L507.654 1643.73ZM537.869 1566.99L554.235 1525.42L550.514 1523.95L534.147 1565.52L537.869 1566.99ZM554.235 1525.42L576.372 1469.19L572.65 1467.72L550.514 1523.95L554.235 1525.42ZM576.372 1469.19L592.948 1427.09L589.226 1425.62L572.65 1467.72L576.372 1469.19ZM592.948 1427.09L713.807 1120.1L710.085 1118.64L589.226 1425.62L592.948 1427.09ZM926.491 1119.37V1057.81H922.491V1119.37H926.491ZM926.491 1057.81V1014.64H922.491V1057.81H926.491ZM926.491 1014.64V960.283H922.491V1014.64H926.491ZM926.491 960.283V917.113H922.491V960.283H926.491ZM926.491 717.255V703.665H922.491V717.255H926.491ZM926.491 759.625V717.255H922.491V759.625H926.491ZM926.491 813.986V759.625H922.491V813.986H926.491ZM926.491 917.113V855.557H922.491V917.113H926.491ZM926.491 855.557V813.986H922.491V855.557H926.491ZM1670.8 705.665H1733.92V701.665H1670.8V705.665ZM1627.65 705.665H1670.8V701.665H1627.65V705.665ZM1565.32 705.665H1627.65V701.665H1565.32V705.665ZM1516.58 705.665H1565.32V701.665H1516.58V705.665ZM1453.46 705.665H1516.58V701.665H1453.46V705.665ZM1435.88 705.665H1453.46V701.665H1435.88V705.665ZM1372.75 705.665H1435.88V701.665H1372.75V705.665ZM1321.61 705.665H1372.75V701.665H1321.61V705.665ZM1258.26 705.665H1321.61V701.665H1258.26V705.665ZM1226.53 705.665H1258.26V701.665H1226.53V705.665ZM1165 705.665H1226.53V701.665H1165V705.665ZM1103.48 705.665H1165V701.665H1103.48V705.665ZM1039.55 705.665H1103.48V701.665H1039.55V705.665ZM1015.58 705.665H1039.55V701.665H1015.58V705.665ZM924.491 705.665H951.658V701.665H924.491V705.665ZM951.658 705.665H1015.58V701.665H951.658V705.665ZM1169 150.854L997.204 150.855V154.855L1169 154.854V150.854ZM1211.35 150.854L1169 150.854V154.854L1211.35 154.854V150.854ZM1274.47 150.854L1211.35 150.854V154.854L1274.47 154.854V150.854ZM1316.02 150.854L1274.47 150.854V154.854L1316.02 154.854V150.854ZM1375.15 150.854L1316.02 150.854V154.854L1375.15 154.854V150.854ZM1418.3 150.854L1375.15 150.854V154.854L1418.3 154.854V150.854ZM1462.25 150.854L1418.3 150.854V154.854L1462.25 154.854V150.854ZM1506.19 150.854L1462.25 150.854V154.854L1506.19 154.854V150.854ZM1566.92 150.854L1506.19 150.854V154.854L1566.92 154.854V150.854ZM1610.87 150.854L1566.92 150.854V154.854L1610.87 154.854V150.854ZM1685.98 150.854L1610.87 150.854V154.854L1685.98 154.854V150.854ZM1733.12 150.854H1685.98V154.854H1733.12V150.854ZM1781.86 150.855L1733.12 150.854V154.854L1781.86 154.855V150.855ZM1824.21 150.855L1781.86 150.855V154.855L1824.21 154.855V150.855ZM2501 150.855L2453.86 150.855V154.855L2501 154.855V150.855ZM2453.86 150.855L2409.11 150.855V154.855L2453.86 154.855V150.855ZM2409.11 150.855L2353.98 150.855V154.855L2409.11 154.855V150.855ZM2353.98 150.855L2309.23 150.855V154.855L2353.98 154.855V150.855ZM2309.23 150.855L2240.51 150.855V154.855L2309.23 154.855V150.855ZM2240.51 150.855L2197.36 150.855V154.855L2240.51 154.855V150.855ZM2197.36 150.855L2132.64 150.855V154.855L2197.36 154.855V150.855ZM2132.64 150.855L2089.49 150.855V154.855L2132.64 154.855V150.855ZM2089.49 150.855L1824.21 150.855V154.855L2089.49 154.855V150.855ZM2399.52 705.665H2501V701.665H2399.52V705.665ZM2336.4 705.665H2399.52V701.665H2336.4V705.665ZM2200.56 705.665H2336.4V701.665H2200.56V705.665ZM2135.84 705.665H2200.56V701.665H2135.84V705.665ZM1733.92 705.665H1931.28V701.665H1733.92V705.665ZM1931.28 705.665H1991.21V701.665H1931.28V705.665ZM1991.21 705.665H2135.84V701.665H1991.21V705.665Z" fill="black" mask="url(#path-1-inside-1_194_422)"/>
</svg>
