<svg width="141" height="56" viewBox="0 0 141 56" fill="none" xmlns="http://www.w3.org/2000/svg">
<path fill-rule="evenodd" clip-rule="evenodd" d="M31.8023 46.1976C32.1081 45.7563 32.5395 45.4193 33.0313 45.204C41.3554 41.5619 47.1715 33.2531 47.1715 23.5858C47.1715 10.5597 36.6118 0 23.5858 0C10.5597 0 0 10.5597 0 23.5858C0 33.2531 5.81616 41.5619 14.1402 45.204C14.6321 45.4193 15.0634 45.7563 15.3692 46.1976L21.3488 54.8284C22.431 56.3905 24.7405 56.3905 25.8228 54.8284L31.8023 46.1976Z" fill="#0156FE"/>
<path fill-rule="evenodd" clip-rule="evenodd" d="M26.6597 30.9304C28.0294 30.3825 28.7143 30.1085 29.2515 29.6374C29.3884 29.5173 29.5173 29.3884 29.6374 29.2515C30.1085 28.7143 30.3825 28.0294 30.9304 26.6597C33.499 20.2381 34.7833 17.0273 33.5371 15.1934C33.2416 14.7585 32.8666 14.3835 32.4317 14.088C30.5978 12.8418 27.387 14.1261 20.9654 16.6947C19.5957 17.2426 18.9109 17.5166 18.3736 17.9877C18.2367 18.1078 18.1078 18.2367 17.9877 18.3736C17.5166 18.9109 17.2426 19.5957 16.6947 20.9654C14.1261 27.387 12.8418 30.5978 14.088 32.4317C14.3835 32.8666 14.7585 33.2416 15.1934 33.5371C17.0273 34.7833 20.2381 33.499 26.6597 30.9304ZM23.8126 26.8742C25.5034 26.8742 26.8742 25.5035 26.8742 23.8126C26.8742 22.1217 25.5034 20.751 23.8126 20.751C22.1217 20.751 20.7509 22.1217 20.7509 23.8126C20.7509 25.5035 22.1217 26.8742 23.8126 26.8742Z" fill="white"/>
<path d="M65.8596 35.5H61.9476V18.508H65.8596V35.5ZM76.9608 35.5H71.8488L67.6248 18.508H72.0408L74.4408 30.556L77.1048 18.508H82.0968L84.7128 30.556L87.1128 18.508H91.5048L87.2808 35.5H82.1208L79.5528 23.692L76.9608 35.5ZM105.764 18.508V22.084H97.1956V25.348H104.468V28.828H97.1956V31.972H105.764V35.5H93.2836V18.508H105.764ZM112.121 18.508L119.729 29.02V18.508H123.641V35.5H119.969L112.289 25.06V35.5H108.377V18.508H112.121ZM125.542 22.084V18.508H139.822V22.084H134.638V35.5H130.726V22.084H125.542Z" fill="black"/>
</svg>
